<?xml version="1.0" ?><svg height="512" id="svg2" version="1.1" width="512" xmlns="http://www.w3.org/2000/svg" xmlns:cc="http://creativecommons.org/ns#" xmlns:dc="http://purl.org/dc/elements/1.1/" xmlns:inkscape="http://www.inkscape.org/namespaces/inkscape" xmlns:rdf="http://www.w3.org/1999/02/22-rdf-syntax-ns#" xmlns:sodipodi="http://sodipodi.sourceforge.net/DTD/sodipodi-0.dtd" xmlns:svg="http://www.w3.org/2000/svg"><defs id="defs4"/><g id="layer1" transform="translate(0,-540.3622)"><path d="m 53.265627,960.50181 c 0,5.09105 2.11819,10.15073 5.71875,13.75 l 55.000003,54.99999 c 3.59815,3.5913 8.63504,5.6875 13.71875,5.6875 5.08369,0 10.15184,-2.0962 13.75,-5.6875 l 114.5625,-114.56249 114.5625,114.56249 c 3.66678,3.6642 8.84801,5.7644 14.03125,5.6875 4.9853,-0.078 9.91076,-2.1631 13.4375,-5.6875 l 55,-54.99999 c 3.6006,-3.59927 5.6875,-8.65895 5.6875,-13.75 0,-5.09105 -2.0869,-10.15073 -5.6875,-13.75 L 269.76563,763.47056 c -3.59928,-3.60056 -8.65895,-5.6875 -13.75,-5.6875 -5.09105,0 -10.15073,2.08694 -13.75,5.6875 L 58.984377,946.75181 c -3.60056,3.59927 -5.71875,8.65895 -5.71875,13.75 z m 0,-200 c 0,5.09105 2.11819,10.15073 5.71875,13.75 l 55.000003,55 c 3.59815,3.59127 8.63504,5.6875 13.71875,5.6875 5.08369,0 10.15184,-2.09623 13.75,-5.6875 l 114.5625,-114.5625 114.5625,114.5625 c 3.66678,3.66423 8.84801,5.76442 14.03125,5.6875 4.9853,-0.0784 9.91076,-2.16308 13.4375,-5.6875 l 55,-55 c 3.6006,-3.59927 5.6875,-8.65895 5.6875,-13.75 0,-5.09105 -2.0869,-10.15073 -5.6875,-13.75 L 269.76563,563.47056 c -3.59928,-3.60056 -8.65895,-5.6875 -13.75,-5.6875 -5.09105,0 -10.15073,2.08694 -13.75,5.6875 L 58.984377,746.75181 c -3.60056,3.59927 -5.71875,8.65895 -5.71875,13.75 z" id="path3766-1" style="font-size:medium;font-style:normal;font-variant:normal;font-weight:normal;font-stretch:normal;text-indent:0;text-align:start;text-decoration:none;line-height:normal;letter-spacing:normal;word-spacing:normal;text-transform:none;direction:ltr;block-progression:tb;writing-mode:lr-tb;text-anchor:start;baseline-shift:baseline;color:#000000;fill:#222222;fill-opacity:1;fill-rule:nonzero;stroke:none;stroke-width:38.88000107;marker:none;visibility:visible;display:inline;overflow:visible;enable-background:accumulate;font-family:Sans;-inkscape-font-specification:Sans"/></g></svg>