<?xml version="1.0" standalone="no"?>
<!DOCTYPE svg PUBLIC "-//W3C//DTD SVG 20010904//EN"
 "http://www.w3.org/TR/2001/REC-SVG-20010904/DTD/svg10.dtd">
<svg version="1.0" xmlns="http://www.w3.org/2000/svg"
 width="1065.000000pt" height="1280.000000pt" viewBox="0 0 1065.000000 1280.000000"
 preserveAspectRatio="xMidYMid meet">
<g transform="translate(0.000000,1280.000000) scale(0.100000,-0.100000)"
fill="#00bcd4" stroke="none">
<path d="M2672 9938 c-1446 -1553 -2628 -2825 -2625 -2828 2 -3 728 -7 1611
-10 l1607 -5 5 -180 5 -180 2045 0 2045 0 5 180 5 180 1598 3 c920 1 1597 6
1595 11 -2 5 -475 517 -1053 1137 -577 621 -1758 1891 -2623 2822 -866 930
-1578 1692 -1582 1692 -4 0 -1191 -1270 -2638 -2822z"/>
<path d="M3275 6597 c-3 -7 -4 -127 -3 -267 l3 -255 2045 0 2045 0 0 265 0
265 -2043 3 c-1643 2 -2044 0 -2047 -11z"/>
<path d="M3274 5887 c-2 -7 -3 -114 -2 -237 l3 -225 2048 -3 2047 -2 -2 237
-3 238 -2043 3 c-1648 2 -2044 0 -2048 -11z"/>
<path d="M3276 5224 c-3 -9 -6 -110 -6 -225 l0 -209 26 -10 c16 -7 748 -9
2047 -8 l2022 3 0 230 0 230 -2041 3 c-1855 2 -2042 1 -2048 -14z"/>
<path d="M3277 4603 c-4 -3 -7 -95 -7 -203 0 -154 3 -200 14 -209 10 -8 552
-10 2047 -9 l2034 3 0 210 0 210 -2041 3 c-1122 1 -2044 -1 -2047 -5z"/>
<path d="M3276 3974 c-3 -9 -6 -92 -6 -184 0 -157 1 -170 19 -180 14 -7 661
-9 2048 -8 l2028 3 3 170 c1 94 0 180 -3 193 l-5 22 -2039 0 c-1850 0 -2039
-1 -2045 -16z"/>
<path d="M3277 3353 c-4 -3 -7 -77 -7 -163 0 -120 3 -160 14 -169 10 -8 552
-10 2047 -9 l2034 3 0 170 0 170 -2041 3 c-1122 1 -2044 -1 -2047 -5z"/>
<path d="M3282 2728 c-14 -14 -17 -275 -4 -296 7 -10 423 -12 2048 -10 l2039
3 3 144 c2 97 -1 148 -9 157 -10 12 -323 14 -2038 14 -1563 0 -2030 -3 -2039
-12z"/>
<path d="M3277 2103 c-10 -9 -8 -235 1 -251 7 -10 423 -12 2048 -10 l2039 3 0
130 0 130 -2041 3 c-1122 1 -2044 -1 -2047 -5z"/>
<path d="M3281 1476 c-8 -9 -11 -50 -9 -117 l3 -104 2045 0 2045 0 3 104 c2
67 -1 108 -9 117 -17 21 -4061 21 -4078 0z"/>
<path d="M3274 847 c-3 -8 -4 -52 -2 -98 l3 -84 2048 -3 2048 -2 -3 97 -3 98
-2043 3 c-1697 2 -2043 0 -2048 -11z"/>
<path d="M3281 226 c-7 -9 -11 -40 -9 -78 l3 -63 2048 -3 2047 -2 0 68 c0 40
-5 73 -12 80 -9 9 -476 12 -2039 12 -1733 0 -2028 -2 -2038 -14z"/>
</g>
</svg>
