<svg xmlns="http://www.w3.org/2000/svg" xmlns:xlink="http://www.w3.org/1999/xlink" viewBox="0 0 31 17"><path d="M5.63 14.28l-2-.42a2.77 2.77 0 0 1-.77-.6 1.07 1.07 0 0 1-.04-.4 15.6 15.6 0 0 1-.2-1.66 1.2 1.2 0 0 1 .43-.71 1.38 1.38 0 0 0 .17-.68.27.27 0 0 1 .23-.24 27.91 27.91 0 0 1 3.12-.42 14.58 14.58 0 0 1 1.84.15l2.13.38 6.4.1-2.37-1.88c-.07-.05-.22-.28-.1-.45a.34.34 0 0 1 .43-.1c.13.04 3.76 2.13 3.76 2.13l4.67.3c.72.08 3.68.82 5.02 2.23.15.15-.13.46-.13.46a7.49 7.49 0 0 1 .02 1.4 2.29 2.29 0 0 1-.15.48 10.31 10.31 0 0 1-2.15.02" fill="#fff"/><path d="M26.73 14.67a4.96 4.96 0 0 1-.84-.05.25.25 0 0 1-.2-.3.24.24 0 0 1 .29-.2 9.1 9.1 0 0 0 1.93 0l.08-.3a6.7 6.7 0 0 0-.02-1.33.25.25 0 0 1 .06-.19.72.72 0 0 0 .1-.15c-1.3-1.34-4.14-2.04-4.83-2.12s-4.62-.3-4.66-.3a.25.25 0 0 1-.1-.04l-3.74-2.1c-.1-.03-.1-.01-.12.01a.26.26 0 0 0 .05.12l2.37 1.87a.25.25 0 0 1-.15.44c-.95.05-4.85-.01-6.43-.1a9.37 9.37 0 0 1-.97-.16l-1.17-.22a14.11 14.11 0 0 0-1.8-.14 23.27 23.27 0 0 0-2.83.37l-.27.05a1.56 1.56 0 0 1-.24.83l-.08.1a.8.8 0 0 0-.3.47 10.26 10.26 0 0 0 .16 1.3l.05.35a2.36 2.36 0 0 0 0 .27 2.5 2.5 0 0 0 .65.5 19.61 19.61 0 0 0 1.96.4.25.25 0 0 1 .2.3.24.24 0 0 1-.29.2 19.46 19.46 0 0 1-2.06-.44 2.97 2.97 0 0 1-.86-.67c-.1-.1-.1-.26-.1-.54l-.04-.3a8.8 8.8 0 0 1-.16-1.42 1.25 1.25 0 0 1 .43-.79l.07-.07c0-.01.07-.1.1-.5a.52.52 0 0 1 .46-.48l.23-.05a23.65 23.65 0 0 1 2.9-.38 15.55 15.55 0 0 1 1.89.15l1.2.22.9.16 5.7.1-1.82-1.43a.62.62 0 0 1-.16-.8.57.57 0 0 1 .71-.2c.13.05 2.1 1.17 3.76 2.13l4.62.3c.87.1 3.82.86 5.18 2.3.2.2.1.5-.05.7a6.56 6.56 0 0 1 0 1.38 2.46 2.46 0 0 1-.17.55.25.25 0 0 1-.2.13c-.04.01-.72.08-1.38.08zm1.43-2.5z" fill="#053361"/><g fill="#dedfe0"><ellipse cx="15.79" cy="16.17" rx="11.39" ry=".57"/><circle cx="7.65" cy="13.86" r="2.06"/></g><use xlink:href="#B" fill="#053361"/><g fill="#fff"><circle cx="7.65" cy="13.86" r="1.18"/><path d="M6.57 14.32a1.18 1.18 0 1 1 1.08.72 1.17 1.17 0 0 1-.73-.26"/></g><path d="M7.65 15.17a1.3 1.3 0 0 1-.81-.29.13.13 0 0 1-.02-.17.12.12 0 0 1 .18-.02 1.05 1.05 0 1 0-.31-.42.13.13 0 0 1-.07.17.12.12 0 0 1-.17-.07 1.3 1.3 0 1 1 1.2.8z" fill="#053361"/><circle cx="23.94" cy="13.86" r="2.06" fill="#dedfe0"/><use xlink:href="#B" x="16.29" fill="#053361"/><g fill="#fff"><circle cx="23.94" cy="13.86" r="1.18"/><path d="M23.6 12.74a1.17 1.17 0 1 1-.82.99"/></g><path d="M23.94 15.17a1.3 1.3 0 0 1-1.3-1.45.12.12 0 0 1 .14-.11.13.13 0 0 1 .1.14 1.04 1.04 0 0 0 .05.43 1.05 1.05 0 1 0 .69-1.32.13.13 0 0 1-.16-.08.12.12 0 0 1 .08-.16 1.3 1.3 0 1 1 .4 2.55zM22 14.8H10.9a.25.25 0 0 1 0-.5H22a.25.25 0 0 1 0 .5z" fill="#053361"/><path d="M19.82 10.14l-4.93-2.8a.34.34 0 0 0-.42.1c-.12.17.04.4.1.45l2.37 1.87h2.22" fill="#dedfe0"/><g fill="#053361"><path d="M19.82 10.4a.25.25 0 0 1-.12-.03l-.6-.34h-2.16a.25.25 0 0 1-.16-.06L14.42 8.1a.62.62 0 0 1-.16-.79.57.57 0 0 1 .71-.2c.13.04 2.78 1.56 4.97 2.82a.25.25 0 0 1-.12.47zm-2.8-.87h1.22L14.8 7.57c-.1-.03-.1 0-.13.01a.26.26 0 0 0 .06.12l2.3 1.82zm-5.5.4a.25.25 0 0 1-.2-.1L11 9.4a.25.25 0 0 1-.04-.18 2.75 2.75 0 0 0 0-1.04.2.2 0 0 0-.05-.02.25.25 0 0 1-.31-.38.5.5 0 0 1 .67.02c.28.2.27.84.2 1.4l.25.34a.25.25 0 0 1-.05.35.24.24 0 0 1-.15.05zm-.56-1.82z"/><path d="M15.4 10.06h.74a.3.3 0 0 0 .3-.3.3.3 0 0 0-.3-.28h-.74z"/><path d="M16.15 10.3h-.74a.25.25 0 0 1-.25-.24v-.58a.25.25 0 0 1 .25-.25h.74a.54.54 0 0 1 0 1.08zm-.5-.5h.5v-.07h-.5zM4.14 10.92H2.77a.13.13 0 0 1 0-.25H4.1l.14-.1a3.8 3.8 0 0 0-1.1-.27.13.13 0 0 1-.1-.14.12.12 0 0 1 .13-.1 3.08 3.08 0 0 1 1.39.42.13.13 0 0 1-.02.2l-.34.22a.13.13 0 0 1-.07.01zm22.75 1.04a.17.17 0 0 1-.03 0 4.41 4.41 0 0 1-.9-.62.13.13 0 0 1-.05-.11.12.12 0 0 1 .07-.1 3.25 3.25 0 0 1 1.28-.1.13.13 0 0 1-.03.25 4.11 4.11 0 0 0-.93.01 3.7 3.7 0 0 0 .6.42 1.7 1.7 0 0 0 .78-.3.13.13 0 0 1 .17.18 2 2 0 0 1-.95.37zm-14.85-1.3h-1.02a.13.13 0 0 1 0-.25h1.02a.13.13 0 0 1 0 .25zm-6.4 2.9h-.01a12.56 12.56 0 0 1-2.88-.76.12.12 0 1 1 .09-.23 12.7 12.7 0 0 0 2.8.73.13.13 0 0 1 0 .25zm16.24.24H9.7a.13.13 0 0 1 0-.24h12.18a.13.13 0 0 1 0 .25zm5.3 0h-1.15a.13.13 0 0 1 0-.24h1.15a.13.13 0 1 1 0 .25zm-16.02-.85a.13.13 0 0 1-.1-.04 4.88 4.88 0 0 1-1.1-2.47c-.04-.4.44-.82.5-.87a.13.13 0 0 1 .18.02.12.12 0 0 1-.02.17c-.12.1-.42.42-.4.65a4.7 4.7 0 0 0 1.03 2.33.13.13 0 0 1 0 .18.13.13 0 0 1-.08.03z"/><path d="M18.54 13.8h-.01a.12.12 0 0 1-.11-.13c0-.02.26-2.17.24-2.8a1.65 1.65 0 0 0-.45-1.01.13.13 0 0 1 0-.18.13.13 0 0 1 .18 0 1.89 1.89 0 0 1 .52 1.18c.03.65-.23 2.75-.24 2.84a.13.13 0 0 1-.13.1zm-14.4-3l.34-.2a1.42 1.42 0 0 0-.58-.27v.48zm22.53.92a8.64 8.64 0 0 1-.64-.48 1.65 1.65 0 0 1 .6-.1z"/></g><path d="M10.97 9.67a11.73 11.73 0 0 0-.11-1.6c-.1-.28-.33-.27-.4-.1S10.1 9.5 10.1 9.5s.05.22.88.16z" fill="#fff"/><path d="M10.7 9.93c-.64 0-.82-.2-.85-.38a.23.23 0 0 1 0-.1 16.05 16.05 0 0 1 .37-1.6.44.44 0 0 1 .43-.25.53.53 0 0 1 .45.4 10.74 10.74 0 0 1 .13 1.66.25.25 0 0 1-.24.25c-.1.02-.2.02-.3.02zm-.33-.53a2.06 2.06 0 0 0 .35.03 10.94 10.94 0 0 0-.09-1.22l-.26 1.2z" fill="#053361"/><defs ><path id="B" d="M7.65 16.17a2.31 2.31 0 1 1 2.3-2.3 2.31 2.31 0 0 1-2.3 2.3zm0-4.12a1.81 1.81 0 1 0 1.8 1.81 1.81 1.81 0 0 0-1.8-1.8z"/></defs></svg>