<svg xmlns="http://www.w3.org/2000/svg" xmlns:xlink="http://www.w3.org/1999/xlink" viewBox="0 0 31 17"><path d="M5.06 13.6a19.1 19.1 0 0 1-2.51-.63 1.3 1.3 0 0 1-.16-.46 9.1 9.1 0 0 1 .2-.9 7.78 7.78 0 0 1 .14-.78l.27-.3a2.24 2.24 0 0 1 .82-1.61l-.04-.35h.4s6.16-1.9 10.1-1.9A10.98 10.98 0 0 1 17.5 7c.66.24 4.37 2.2 4.37 2.2s4.87.2 6.53 1.82l-.08.65.3.28v1.43c0 .1.04.38-.93.57H26" fill="#fff"/><path d="M26 14.2a.25.25 0 0 1 0-.5h1.68c.46-.1.68-.22.68-.3v-1.34l-.22-.2a.25.25 0 0 1-.08-.22l.07-.52c-1.66-1.47-6.24-1.66-6.28-1.67a.24.24 0 0 1-.11-.02l-4.33-2.2a10.5 10.5 0 0 0-3.13-.3c-3.86 0-9.96 1.86-10.02 1.88a.22.22 0 0 1-.07.01h-.13l.01.07a.25.25 0 0 1-.1.23 2.01 2.01 0 0 0-.73 1.42.25.25 0 0 1-.07.17l-.22.24c-.04.14-.1.47-.12.68a8.55 8.55 0 0 0-.2.88.84.84 0 0 0 .09.25 19.2 19.2 0 0 0 2.38.58.25.25 0 0 1-.1.5 18.95 18.95 0 0 1-2.54-.64.26.26 0 0 1-.13-.12 1.41 1.41 0 0 1-.19-.58 7.88 7.88 0 0 1 .2-.96 6.82 6.82 0 0 1 .15-.8.25.25 0 0 1 .06-.09l.2-.22a2.5 2.5 0 0 1 .8-1.62l-.02-.2a.25.25 0 0 1 .06-.2.25.25 0 0 1 .19-.09h.37c.56-.17 6.3-1.9 10.13-1.9a10.73 10.73 0 0 1 3.3.34c.63.24 3.88 1.95 4.35 2.2.58.02 5 .28 6.64 1.88a.25.25 0 0 1 .07.2l-.07.53.2.2a.25.25 0 0 1 .08.18v1.43c.01.4-.34.66-1.13.82z" fill="#053361"/><g fill="#dedfe0"><ellipse cx="15.53" cy="16.19" rx="11.52" ry=".57"/><circle cx="7.25" cy="13.75" r="2.19"/></g><use xlink:href="#B" fill="#053361"/><circle cx="7.25" cy="13.75" r="1.25" fill="#fff"/><path d="M7.25 15.13a1.4 1.4 0 0 1-.45-.08 1.38 1.38 0 1 1 1.75-.85 1.36 1.36 0 0 1-.26.45.12.12 0 0 1-.17.01.12.12 0 0 1-.02-.18 1.13 1.13 0 1 0-.4.3.13.13 0 0 1 .17.06.13.13 0 0 1-.07.17 1.37 1.37 0 0 1-.55.12z" fill="#053361"/><circle cx="23.81" cy="13.75" r="2.19" fill="#dedfe0"/><use xlink:href="#B" x="16.55" fill="#053361"/><circle cx="23.81" cy="13.75" r="1.25" fill="#fff"/><path d="M23.8 15.12a1.38 1.38 0 0 1-1.06-.49.12.12 0 0 1 .02-.18.13.13 0 0 1 .17.02 1.13 1.13 0 1 0-.22-1.02.12.12 0 0 1-.15.09.12.12 0 0 1-.09-.16 1.38 1.38 0 1 1 1.33 1.74zm-1.2-.92a.13.13 0 0 1-.12-.1 1.46 1.46 0 0 1-.04-.26.12.12 0 0 1 .11-.13.13.13 0 0 1 .14.12 1.08 1.08 0 0 0 .03.21.13.13 0 0 1-.09.16.12.12 0 0 1-.03 0zM10.54 7.3a.25.25 0 0 1-.24-.17l-.13-.43a.25.25 0 0 1 .04-.22.23.23 0 0 1 .2-.1 2.08 2.08 0 0 1 1.19.36.25.25 0 1 1-.35.36 1.06 1.06 0 0 0-.5-.19l.02.08a.25.25 0 0 1-.16.3.3.3 0 0 1-.07.02z" fill="#053361"/><path d="M7.9 8.7l.44-.34a24.16 24.16 0 0 1 7.48-.71 11.74 11.74 0 0 1 5.07 2.07l-10.36-.6c-.4 0-2.63-.4-2.63-.4z" fill="#dedfe0"/><g fill="#053361"><path d="M20.88 9.96h-.01l-10.34-.6c-.4 0-2.45-.38-2.68-.42a.25.25 0 0 1-.1-.44l.43-.34a.24.24 0 0 1 .09-.04 24.07 24.07 0 0 1 7.57-.72 12.18 12.18 0 0 1 5.18 2.11.25.25 0 0 1-.14.46zM8.56 8.55l1.97.3c.33 0 6.77.4 9.34.56a10.25 10.25 0 0 0-4.08-1.52 23.8 23.8 0 0 0-7.23.66z"/><path d="M12.6 12.36a.12.12 0 0 1-.12-.1A24.07 24.07 0 0 1 12 6.83a.13.13 0 0 1 .13-.12.12.12 0 0 1 .12.13 23.86 23.86 0 0 0 .48 5.37.12.12 0 0 1-.09.16.1.1 0 0 1-.03 0zm1.5-2.24h-1a.13.13 0 1 1 0-.25h1.02a.13.13 0 0 1 0 .25zM19 9.9h.75a.3.3 0 0 0 .29-.3.3.3 0 0 0-.3-.28H19z"/><path d="M19.75 10.14H19a.25.25 0 0 1-.25-.25v-.6a.25.25 0 0 1 .25-.25h.74a.54.54 0 0 1 0 1.08zm-.5-.5h.5v-.08h-.5zm-10.97-.9l-.93-.18m.93.43a.24.24 0 0 1-.05 0l-.92-.18a.25.25 0 0 1 .09-.49l.92.18a.25.25 0 0 1-.04.5zm20.02 2.8a.1.1 0 0 1-.03 0c-.05-.02-1.24-.37-1.5-.5-.24-.13-1.03-.67-1.07-.7a.12.12 0 0 1-.04-.13c.02-.07.1-.1.16-.1a8.62 8.62 0 0 1 2.62.53.13.13 0 1 1-.1.23 9.29 9.29 0 0 0-2.14-.5l.68.45c.24.1 1.45.46 1.46.47a.12.12 0 0 1 .09.15.13.13 0 0 1-.12.09zm-6.66 2.34H10.78a.25.25 0 0 1 0-.5h10.86a.25.25 0 0 1 0 .5zM3 10.66a.13.13 0 0 1-.04-.24l.6-.22a.11.11 0 0 1 .04 0 2.13 2.13 0 0 0 .87-.32 9.67 9.67 0 0 0 .71-.52l-1.06-.68a.13.13 0 1 1 .13-.21l1.2.77a.12.12 0 0 1 .02.2 9.42 9.42 0 0 1-.87.65 2.34 2.34 0 0 1-.97.35l-.6.2a.12.12 0 0 1-.03.01z"/><path d="M3.6 10.32a2.2 2.2 0 0 0 .93-.34 9.31 9.31 0 0 0 .86-.64l-1.2-.77h-.4l.04.35.37.47zm1.2 1.15a.11.11 0 0 1-.04-.01L3.3 11l-.57-.06.02-.24.58.05c.16.01 1.3.4 1.52.47a.13.13 0 0 1-.04.25zm15.9 1.67H9.36a.13.13 0 0 1 0-.25h11.27a14.71 14.71 0 0 0 .44-1.88 1.97 1.97 0 0 0-.28-1.23.13.13 0 0 1 .2-.14 2.19 2.19 0 0 1 .33 1.4 15.16 15.16 0 0 1-.48 2.02.12.12 0 0 1-.11.08zm6.5-1.8l-.38-.14c-.22-.13-1.05-.7-1.05-.7a6.05 6.05 0 0 1 1.26.13 1.4 1.4 0 0 1 .17.37 2.7 2.7 0 0 1 0 .34zm1.4 1.8h-2.73a.13.13 0 0 1 0-.25h2.73a.13.13 0 0 1 0 .25z"/></g><defs ><path id="B" d="M7.25 16.2a2.44 2.44 0 1 1 2.44-2.44 2.45 2.45 0 0 1-2.44 2.44zm0-4.4a1.94 1.94 0 1 0 1.94 1.95 1.95 1.95 0 0 0-1.94-1.95z"/></defs></svg>