<svg xmlns="http://www.w3.org/2000/svg" viewBox="0 0 31 17"><path d="M4.87 13.75l-2.07-.4a2.96 2.96 0 0 1-.24-1.8 4.79 4.79 0 0 1 .06-.68 1.28 1.28 0 0 1 .53-.61v-.45a5.61 5.61 0 0 1-.06-.74.98.98 0 0 1 .37-.46C3.66 8.47 5 7.32 5 7.32l-.1-.3a37.07 37.07 0 0 1 7.68-.6 14.68 14.68 0 0 1 4.05.43c.74.26 3.67 1.76 3.87 1.87a8.69 8.69 0 0 0 2.63.66 26.34 26.34 0 0 1 4.06.8c.48.2 1 .42 1.14 1.05a4.28 4.28 0 0 1 0 2.64l-1.06.2-.43.22h-1.35" fill="#fff"/><path d="M26.8 14.53h-1.35a.25.25 0 0 1 0-.5h1.3l.37-.2a.26.26 0 0 1 .07-.02l.9-.16a3.85 3.85 0 0 0 0-2.2l-.04-.16c-.1-.5-.48-.68-1-.9a26.27 26.27 0 0 0-4-.78 8.97 8.97 0 0 1-2.7-.68 60.79 60.79 0 0 0-3.84-1.86 14.5 14.5 0 0 0-3.97-.42 40.94 40.94 0 0 0-7.33.55v.01a.25.25 0 0 1-.07.28A66 66 0 0 1 3.6 8.82a.83.83 0 0 0-.28.31 5.77 5.77 0 0 0 .06.66v.48a.25.25 0 0 1-.13.21 1.08 1.08 0 0 0-.4.46 4.4 4.4 0 0 0-.06.62 2.69 2.69 0 0 0 .17 1.58l1.95.36a.25.25 0 1 1-.1.5l-2.07-.4a.25.25 0 0 1-.18-.14 3.17 3.17 0 0 1-.25-1.97 3.63 3.63 0 0 1 .06-.68 1.46 1.46 0 0 1 .51-.68v-.3a3.68 3.68 0 0 1-.05-.8 1.26 1.26 0 0 1 .47-.6c.14-.1.9-.76 1.38-1.18l-.05-.12a.25.25 0 0 1 .18-.34 37.03 37.03 0 0 1 7.74-.62 15 15 0 0 1 4.13.45c.76.26 3.72 1.8 3.9 1.9a8.19 8.19 0 0 0 2.54.63 26.65 26.65 0 0 1 4.13.8 1.82 1.82 0 0 1 1.29 1.24l.03.16a4.33 4.33 0 0 1-.04 2.61.25.25 0 0 1-.19.17l-1.03.2-.4.2a.25.25 0 0 1-.12.02z" fill="#053361"/><g fill="#dedfe0"><ellipse cx="15.19" cy="16.19" rx="11.35" ry=".57"/><circle cx="7.07" cy="13.75" r="2.19"/></g><path d="M7.07 16.2a2.44 2.44 0 1 1 2.44-2.45 2.44 2.44 0 0 1-2.44 2.44zm0-4.4A1.94 1.94 0 1 0 9 13.76a1.95 1.95 0 0 0-1.94-1.94z" fill="#053361"/><circle cx="23.32" cy="13.75" r="2.19" fill="#dedfe0"/><path d="M23.32 16.2a2.44 2.44 0 1 1 2.44-2.45 2.44 2.44 0 0 1-2.45 2.44zm0-4.4a1.94 1.94 0 1 0 1.94 1.95 1.95 1.95 0 0 0-1.95-1.94z" fill="#053361"/><g fill="#fff"><circle cx="23.32" cy="13.75" r="1.25"/><path d="M22.06 13.75a1.25 1.25 0 1 1 .77 1.16 1.24 1.24 0 0 1-.61-.56"/></g><path d="M23.3 15.13a1.38 1.38 0 0 1-.53-.11 1.37 1.37 0 0 1-.67-.6.13.13 0 0 1 .21-.13 1.12 1.12 0 1 0-.13-.54.13.13 0 0 1-.25 0 1.36 1.36 0 0 1 .1-.53 1.38 1.38 0 1 1 1.27 1.9zm-2.16-.8H10.57a.25.25 0 0 1 0-.5h10.58a.25.25 0 0 1 0 .5zm-.87-.98H9.24a.13.13 0 0 1 0-.25h10.94a2.9 2.9 0 0 1 2.14-2.35.12.12 0 0 1 .15.1.13.13 0 0 1-.1.14 2.72 2.72 0 0 0-1.96 2.25.13.13 0 0 1-.13.1z" fill="#053361"/><path d="M10.1 8.84l-3.25-.4a7.67 7.67 0 0 1-.56-.78 47.04 47.04 0 0 1 6.26-.37 14.68 14.68 0 0 1 4.06.43c.6.2 2.57 1.2 3.45 1.66z" fill="#dedfe0"/><g fill="#053361"><path d="M20.06 9.63h-.01L10.1 9.1h-.03l-3.24-.4a.24.24 0 0 1-.16-.08 7.72 7.72 0 0 1-.59-.8.25.25 0 0 1 .18-.39 47.09 47.09 0 0 1 6.3-.38 14.95 14.95 0 0 1 4.14.45c.64.22 2.83 1.33 3.48 1.67a.25.25 0 0 1-.1.47zM10.13 8.6l8.76.47-2.37-1.1a14.5 14.5 0 0 0-3.97-.42 48.25 48.25 0 0 0-5.83.32l.25.34 3.16.4z"/><path d="M18 9.5h.74a.3.3 0 0 0 .29-.28.3.3 0 0 0-.3-.3H18z"/><path d="M18.73 9.76H18a.25.25 0 0 1-.25-.25v-.58a.25.25 0 0 1 .25-.25h.74a.54.54 0 0 1 0 1.08zm-.5-.5h.5v-.08h-.5zm-4.4 3.36a.13.13 0 0 1-.12-.11 68.15 68.15 0 0 0-.87-5.97.13.13 0 0 1 .24-.04c0 .03.7 3.7.88 6a.13.13 0 0 1-.12.13zm1.3-2.62h-1a.13.13 0 0 1 0-.25h1a.13.13 0 0 1 0 .25zm-6.07-.16h-1a.13.13 0 0 1 0-.25h1a.13.13 0 0 1 0 .25zm-2.65-3a.13.13 0 0 1-.11-.06.13.13 0 0 1 .05-.17 11.69 11.69 0 0 1 1.3-.6 9.45 9.45 0 0 1 1.5-.21l5.1.08a6.7 6.7 0 0 1 2 .64.13.13 0 0 1-.1.23 6.43 6.43 0 0 0-1.94-.62 57.4 57.4 0 0 0-5.04-.08 9.25 9.25 0 0 0-1.44.2 11.8 11.8 0 0 0-1.25.58.12.12 0 0 1-.07.01z"/><path d="M8.1 6.72a.12.12 0 0 1-.06-.02.13.13 0 0 1-.05-.17l.33-.6a.13.13 0 0 1 .22.11l-.33.6a.13.13 0 0 1-.1.07zm2.4-.18a.12.12 0 0 1-.13-.12V5.9a.13.13 0 0 1 .26 0v.53a.13.13 0 0 1-.13.12zm-7.35 4a.13.13 0 0 1-.07-.23l1.86-1.18a3.63 3.63 0 0 0-1.82.08.13.13 0 1 1-.08-.24 3.97 3.97 0 0 1 2.02-.07.23.23 0 0 1 .2.18.23.23 0 0 1-.13.23L3.2 10.5a.12.12 0 0 1-.06.02z"/><path d="M3.08 9.08a3.84 3.84 0 0 1 1.95-.07c.14.03.12.13.04.18l-.92.53H3.13zm25.26 2.68h-.01c-.06 0-1.48-.2-1.76-.3a9.27 9.27 0 0 1-1.32-.94.12.12 0 0 1-.04-.13.13.13 0 0 1 .1-.1 7.12 7.12 0 0 1 2.96.6.13.13 0 0 1-.1.22 7.79 7.79 0 0 0-2.5-.58h-.02a6.7 6.7 0 0 0 1 .7c.2.07 1.3.23 1.7.3a.13.13 0 0 1-.01.25z"/><path d="M26.93 10.57a4.6 4.6 0 0 0-1.6-.15 11.27 11.27 0 0 0 1.34.95l.5.1zM4.98 13.2a.14.14 0 0 1-.03 0 15.27 15.27 0 0 1-1.6-.46.13.13 0 0 1-.07-.09c-.07-.26-.3-.95-.73-.97a.13.13 0 0 1 0-.25h.01c.6.03.88.86.94 1.1.46.18 1.5.43 1.5.43a.13.13 0 0 1-.03.25z"/></g><circle cx="7.07" cy="13.75" r="1.25" fill="#fff"/><path d="M5.82 13.6a.13.13 0 0 1-.13-.15 1.36 1.36 0 0 1 .43-.73.13.13 0 0 1 .17.2 1.1 1.1 0 0 0-.35.6.13.13 0 0 1-.12.09zm1.23 1.53a1.4 1.4 0 0 1-1.36-1.09.13.13 0 0 1 .1-.15.13.13 0 0 1 .15.1 1.13 1.13 0 1 0 .78-1.31.12.12 0 0 1-.16-.08.13.13 0 0 1 .08-.16 1.38 1.38 0 1 1 .42 2.7z" fill="#053361"/><path d="M20.06 9.38l.74.34" fill="#dedfe0"/><path d="M20.8 9.97a.26.26 0 0 1-.1-.03l-.74-.33a.25.25 0 1 1 .2-.46l.75.34a.25.25 0 0 1-.1.48z" fill="#053361"/></svg>