<svg xmlns="http://www.w3.org/2000/svg" viewBox="0 0 31 17"><path d="M28.06 13.5h2.32s.32-.15.32-.35c0-.48.1-.9-.44-1.1v-2.7a2.45 2.45 0 0 0-.55-.39c-.08-.02-1.6-.3-3.3-.46L24 8.3l-3.5-2.17a4.34 4.34 0 0 0-1.73-.43c-.1 0-5.68-.13-6.5-.08s-1.4.1-1.5.47-.3 2.1-.3 2.4H1.7c-.3 0-.77-.05-.9.3a10.68 10.68 0 0 0-.07 3.63h-.4a1.36 1.36 0 0 0 0 .88c.05.16.12.22.57.28a30.84 30.84 0 0 0 3.83.1" fill="#fff"/><path d="M3.07 13.93a17.84 17.84 0 0 1-2.21-.12c-.46-.05-.68-.13-.78-.44a1.63 1.63 0 0 1 .03-1.1.28.28 0 0 1 .2-.1h.14a10.7 10.7 0 0 1 .13-3.48c.17-.46.7-.46 1.04-.45h8.63c.05-.58.2-1.87.3-2.2.16-.55.85-.6 1.72-.65.8-.06 6.34.06 6.54.08a4.6 4.6 0 0 1 1.82.44c.82.4 3.06 1.9 3.46 2.16.22 0 .94.05 2.35.2l3.35.48c.01 0 .72.34.72.62v2.54a1.02 1.02 0 0 1 .44 1.07v.2c0 .34-.38.54-.46.57a.24.24 0 0 1-.1.03h-2.33a.25.25 0 0 1 0-.5h2.26a.4.4 0 0 0 .13-.12v-.18c.02-.42 0-.56-.28-.66a.25.25 0 0 1-.16-.24v-2.6a3.52 3.52 0 0 0-.4-.26A44.1 44.1 0 0 0 24 8.56a.25.25 0 0 1-.13-.04L20.4 6.36a4.03 4.03 0 0 0-1.6-.4c-.3-.02-5.72-.13-6.52-.08-.6.04-1.2.08-1.26.3-.1.34-.3 2.03-.3 2.33a.25.25 0 0 1-.25.24H1.6c-.2 0-.5-.01-.56.12a10.5 10.5 0 0 0-.06 3.51.25.25 0 0 1-.06.2.25.25 0 0 1-.19.1H.5a1.58 1.58 0 0 0 .05.55c.02.03.08.06.36.1a22.06 22.06 0 0 0 2.97.1l.83-.01a.25.25 0 1 1 0 .5h-.8l-.83.02zm9.88-3.83h-1.02a.13.13 0 0 1 0-.25h1.02a.13.13 0 0 1 0 .25zm5.77 0h-1a.13.13 0 0 1 0-.25h1a.13.13 0 0 1 0 .25z" fill="#053361"/><g fill="#dedfe0"><ellipse cx="16.33" cy="16.19" rx="12.62" ry=".57"/><circle cx="7.14" cy="13.53" r="2.41"/></g><path d="M7.14 16.2a2.66 2.66 0 1 1 2.66-2.66 2.66 2.66 0 0 1-2.66 2.66zm0-4.82a2.16 2.16 0 1 0 2.16 2.16 2.17 2.17 0 0 0-2.16-2.16z" fill="#053361"/><circle cx="7.14" cy="13.53" r="1.38" fill="#fff"/><circle cx="25.64" cy="13.53" r="2.41" fill="#dedfe0"/><path d="M25.64 16.2a2.66 2.66 0 1 1 2.67-2.66 2.66 2.66 0 0 1-2.66 2.66zm0-4.82a2.16 2.16 0 1 0 2.17 2.16 2.17 2.17 0 0 0-2.16-2.16z" fill="#053361"/><circle cx="25.64" cy="13.53" r="1.38" fill="#fff"/><path d="M24.3 13.36h-.03a.12.12 0 0 1-.1-.15 1.5 1.5 0 0 1 .47-.8.12.12 0 0 1 .18 0 .12.12 0 0 1-.01.18 1.25 1.25 0 0 0-.39.67.12.12 0 0 1-.12.1zm1.34 1.67a1.5 1.5 0 0 1-1.46-1.19.12.12 0 0 1 .1-.14.13.13 0 0 1 .14.1 1.25 1.25 0 1 0 .86-1.47.12.12 0 0 1-.16-.08.13.13 0 0 1 .08-.15 1.53 1.53 0 0 1 .45-.07 1.5 1.5 0 0 1 0 3zM23.23 14H10.67a.25.25 0 0 1 0-.5h12.56a.25.25 0 1 1 0 .5zm-18.5-1.3h-2.4c-.05 0-1-.04-1.44-.1a.13.13 0 0 1-.11-.13.12.12 0 0 1 .14-.11l1.4.1h2.4a.13.13 0 0 1 0 .25z" fill="#053361"/><path d="M12.3 8.62c.07.02 6.03.1 6.04.1.57.01 1 .48 1.58.48l2.23.03c.23 0 .13-.46.1-.58-.18-.58-.83-.8-1.32-1.06a6.28 6.28 0 0 0-2.51-.91c-.28-.02-5.52-.1-5.63-.1-.4 0-.87-.01-.9.5l-.06 1.1c0 .08-.02.37.46.44z" fill="#dedfe0"/><g fill="#053361"><path d="M22.16 9.47h-.22l-2.02-.02a2.12 2.12 0 0 1-.9-.26 1.72 1.72 0 0 0-.68-.22c-.05 0-5.94-.08-6.08-.1-.45-.07-.7-.32-.68-.7l.06-1.12c.05-.7.73-.7 1.1-.7l5.7.08a5.43 5.43 0 0 1 2.25.77l.56.28a2.02 2.02 0 0 1 1.24 1.1.97.97 0 0 1-.03.76.36.36 0 0 1-.3.14zm-9.84-1.1c.3.02 5.68.1 6.02.1a2.12 2.12 0 0 1 .89.26 1.67 1.67 0 0 0 .69.21l2.02.03h.1a1.1 1.1 0 0 0-.04-.25c-.12-.4-.55-.6-.97-.8l-.57-.3a4.95 4.95 0 0 0-2.06-.71l-5.6-.1c-.57 0-.64.06-.65.25l-.07 1.1c0 .06 0 .16.25.2z"/><path d="M17.05 12.22a.12.12 0 0 1-.12-.12 45.69 45.69 0 0 0-.83-6.46.13.13 0 0 1 .25-.05 46.15 46.15 0 0 1 .83 6.5.13.13 0 0 1-.13.13zM21.23 9.2h.74a.3.3 0 0 0 .29-.3.3.3 0 0 0-.3-.28h-.73z"/><path d="M21.97 9.45h-.74a.25.25 0 0 1-.25-.25v-.6a.25.25 0 0 1 .25-.25h.74a.54.54 0 0 1 0 1.09zm-.5-.5h.5v-.1h-.5zm1.9 3.9H10.2a.12.12 0 0 1-.13-.11 2.46 2.46 0 0 0-1.6-1.95.13.13 0 0 1 .1-.24 2.72 2.72 0 0 1 1.74 2.05h13.06a.13.13 0 0 1 0 .25zm-21.9-1.6H.72a.13.13 0 0 1 0-.25h.76c.03 0 .07 0 .07-.06v-.72a.36.36 0 0 1 .1-.26l.35-.3V9.3l-1 .02a1.5 1.5 0 0 1-.29-.04.12.12 0 0 1-.09-.15.13.13 0 0 1 .15-.1 1.24 1.24 0 0 0 .23.04h1.02a.25.25 0 0 1 .24.22v.3a.32.32 0 0 1-.13.27 7.3 7.3 0 0 0-.3.27.11.11 0 0 0-.03.08v.72a.3.3 0 0 1-.32.31zm6.67 3.34a.13.13 0 0 1-.09-.2 1.25 1.25 0 1 0-2.15-1.08.13.13 0 0 1-.15.1.12.12 0 0 1-.1-.14 1.5 1.5 0 1 1 2.58 1.28.12.12 0 0 1-.09.04zm-1 .45a1.51 1.51 0 0 1-1.47-1.18.13.13 0 0 1 .1-.15.12.12 0 0 1 .15.1 1.26 1.26 0 0 0 1.22.98 1.23 1.23 0 0 0 .53-.11.13.13 0 0 1 .1.22 1.48 1.48 0 0 1-.63.14zm3.34-5.18a.25.25 0 0 1-.25-.25V8.5a.25.25 0 0 1 .5 0v1.1a.25.25 0 0 1-.25.25zM24 8.56l-1.12-.07a.25.25 0 0 1-.24-.26.24.24 0 0 1 .27-.24l1.1.07z"/><path d="M.74 9.16a1.44 1.44 0 0 0 .26.03h1.02s.1.02.1.1v.3a.2.2 0 0 1-.07.17L.72 10.9zm29.52 3.16h-1.1a.25.25 0 0 1 0-.5h1.1a.25.25 0 0 1 0 .5zm-22.23-1.7a.16.16 0 0 1-.04 0 2.47 2.47 0 0 0-.5-.07.13.13 0 0 1 0-.25 2.76 2.76 0 0 1 .56.08.13.13 0 0 1 .1.15.12.12 0 0 1-.13.1zm22.23.77h-.6a.4.4 0 0 1-.38-.4v-.58a.28.28 0 0 0-.08-.18l-.4-.35a.13.13 0 0 1-.04-.1v-.24a.27.27 0 0 1 .3-.24h1.2a.13.13 0 0 1 0 .25h-1.2a.1.1 0 0 0-.05.02v.16l.37.32a.53.53 0 0 1 .16.36V11s0 .17.12.17h.6a.13.13 0 0 1 0 .25z"/><path d="M29.52 10.42c0-.14-.2-.24-.23-.27l-.4-.35v-.25c0-.08.1-.1.16-.1h1.2z"/></g><rect x="24.64" width="5.62" height="6.39" rx="1" fill="#f05107"/><path d="M27.43 1.3l1.15 1.78a1.37 1.37 0 0 1-1.13 2.01 1.37 1.37 0 0 1-1.14-2c.25-.46 1.13-1.8 1.13-1.8z" fill="#fff"/></svg>