<svg xmlns="http://www.w3.org/2000/svg" xmlns:xlink="http://www.w3.org/1999/xlink" viewBox="0 0 31 17"><path d="M4.4 14.3l-.9-.38-1.2-.36-.37-.74a5.03 5.03 0 0 1 .52-2.32 1.69 1.69 0 0 1 .24-.82l-.02-.8a26.68 26.68 0 0 1 2.55-1.6 3.64 3.64 0 0 1-.41-.43 44.57 44.57 0 0 1 8.54-.7 15.2 15.2 0 0 1 4.48.62c.35.14 3.25 1.63 3.65 1.8a5.54 5.54 0 0 0 1.48.5c.62.1 4.1.62 5.53 2.07a1.4 1.4 0 0 1 .25.75.84.84 0 0 1 .2.52 7.46 7.46 0 0 1-.28 1.23 1.42 1.42 0 0 1 .33.06c.06.04-.02.28-.15.34a16.7 16.7 0 0 1-1.64.39h-1.86" fill="#fff"/><path d="M25.37 14.67a.25.25 0 0 1 0-.5h1.86l1.36-.3a.25.25 0 0 1-.14-.3 6.7 6.7 0 0 0 .28-1.16.6.6 0 0 0-.15-.35.25.25 0 0 1-.06-.17 1.12 1.12 0 0 0-.2-.6c-.85-.86-2.8-1.58-5.36-1.97a5.5 5.5 0 0 1-1.46-.48l-.1-.04-1.52-.75A55.1 55.1 0 0 0 17.76 7a15.14 15.14 0 0 0-4.38-.6 48.14 48.14 0 0 0-8.05.6l.1.08a.25.25 0 0 1-.06.4A24.92 24.92 0 0 0 2.96 9l.01.68a.24.24 0 0 1-.06.17 1.4 1.4 0 0 0-.18.66.25.25 0 0 1-.05.14 4.6 4.6 0 0 0-.47 2.11l.3.6 1.1.33.9.4a.25.25 0 1 1-.2.45l-.9-.38-1.16-.35a.25.25 0 0 1-.16-.13l-.36-.74a.26.26 0 0 1-.03-.11 5.38 5.38 0 0 1 .52-2.4 1.94 1.94 0 0 1 .24-.82l-.02-.73a.25.25 0 0 1 .1-.2 29.2 29.2 0 0 1 2.27-1.46 1.68 1.68 0 0 1-.2-.23.25.25 0 0 1 .16-.39 45.3 45.3 0 0 1 8.6-.71 15.39 15.39 0 0 1 4.57.64c.2.07 1.02.5 2.16 1.06l1.5.75.1.04a5 5 0 0 0 1.32.43c1.57.24 4.38.84 5.67 2.14a1.56 1.56 0 0 1 .31.83 1.07 1.07 0 0 1 .22.63 5.16 5.16 0 0 1-.21 1.02.6.6 0 0 1 .13.05.31.31 0 0 1 .14.29.61.61 0 0 1-.3.49 15.47 15.47 0 0 1-1.72.4z" fill="#053361"/><g fill="#dedfe0"><ellipse cx="14.91" cy="16.19" rx="11.38" ry=".57"/><circle cx="6.54" cy="13.75" r="2.19"/></g><use xlink:href="#B" fill="#053361"/><g fill="#fff"><circle cx="6.54" cy="13.75" r="1.25"/><path d="M5.38 14.24a1.25 1.25 0 1 1 .38.49"/></g><path d="M6.54 15.13a1.36 1.36 0 0 1-.86-.3.13.13 0 0 1-.02-.18.12.12 0 0 1 .17-.02 1.12 1.12 0 0 0 .7.25 1.13 1.13 0 1 0-1.12-1.13 1.1 1.1 0 0 0 .09.44.13.13 0 0 1-.07.16.12.12 0 0 1-.16-.06 1.38 1.38 0 1 1 1.26.84z" fill="#053361"/><circle cx="23.28" cy="13.75" r="2.19" fill="#dedfe0"/><use xlink:href="#B" x="16.74" fill="#053361"/><g fill="#fff"><circle cx="23.28" cy="13.75" r="1.25"/><path d="M24.53 13.75a1.25 1.25 0 1 1-.74-1.15"/></g><path d="M23.28 15.13a1.38 1.38 0 0 1 0-2.76 1.36 1.36 0 0 1 .56.12.12.12 0 0 1 .06.17.13.13 0 0 1-.16.06 1.1 1.1 0 0 0-.46-.1 1.13 1.13 0 1 0 1.13 1.13.13.13 0 1 1 .25 0 1.38 1.38 0 0 1-1.38 1.38zm-2.04-.33H9.74a.25.25 0 0 1 0-.5h11.5a.25.25 0 0 1 0 .5z" fill="#053361"/><path d="M21.4 9.55c-.4-.17-3.3-1.66-3.66-1.8a15.2 15.2 0 0 0-4.47-.62l-5.24.25-.1.97a2.54 2.54 0 0 0 1.62.6l5 .5c.53.04 6.84.1 6.84.1z" fill="#dedfe0"/><g fill="#053361"><path d="M21.4 9.8c-.26 0-6.32-.07-6.86-.1L9.5 9.2a2.73 2.73 0 0 1-1.78-.69.24.24 0 0 1-.05-.19l.1-.97a.25.25 0 0 1 .22-.22l5.26-.25a15.38 15.38 0 0 1 4.57.64c.2.08 1.02.5 2.16 1.07l1.5.74a.25.25 0 0 1-.1.48zM8.18 8.24a2.84 2.84 0 0 0 1.38.45l5 .5c.4.03 3.9.08 5.73.1l-.53-.26-2.12-1.05a15.14 15.14 0 0 0-4.38-.6l-5.02.22z"/><path d="M13.8 12.74a.13.13 0 0 1-.13-.12 45.9 45.9 0 0 0-.83-6.46.13.13 0 0 1 .1-.14.13.13 0 0 1 .15.1 46.15 46.15 0 0 1 .83 6.5.13.13 0 0 1-.12.13zM8.93 9.97H7.9a.13.13 0 0 1 0-.25h1.02a.13.13 0 0 1 0 .25zm6.23.43h-1.02a.13.13 0 0 1 0-.25h1.02a.13.13 0 0 1 0 .25zm4.3-.58h.73a.3.3 0 0 0 .3-.29.3.3 0 0 0-.3-.29h-.73z"/><path d="M20.18 10.07h-.73a.25.25 0 0 1-.25-.25v-.58a.25.25 0 0 1 .25-.25h.73a.54.54 0 0 1 0 1.09zm-.48-.5h.48V9.5h-.48zM7.98 6.4l-.1-.43s.66-.02.8.36"/><path d="M7.98 6.53a.13.13 0 0 1-.12-.1L7.76 6a.13.13 0 0 1 .13-.15c.04 0 .74 0 .92.45a.12.12 0 0 1-.07.16.13.13 0 0 1-.16-.07c-.08-.2-.35-.26-.53-.28l.06.27a.12.12 0 0 1-.1.15.13.13 0 0 1-.03 0zm.95 2.43a.13.13 0 0 1-.13-.13V7.3a.13.13 0 1 1 .25 0v1.54a.13.13 0 0 1-.12.13zm19.84 3.15a.12.12 0 0 1-.05 0l-1.7-.75c-.26-.13-1.56-.94-1.6-.97a.13.13 0 0 1 .05-.23 10.48 10.48 0 0 1 2.7.52.13.13 0 0 1-.07.24 15.27 15.27 0 0 0-2.16-.5l1.2.72 1.68.73a.13.13 0 0 1-.05.24z"/><path d="M27.08 11.25c-.26-.13-1.6-.97-1.6-.97a4.01 4.01 0 0 1 1.1.12zm.28 2.65a.13.13 0 0 1-.12-.11.12.12 0 0 1 .1-.14l1.34-.14a.11.11 0 0 1 .13.11.12.12 0 0 1-.1.14l-1.33.14zM7.9 8.6a.25.25 0 0 1-.14-.05 1.74 1.74 0 0 0-.75-.3L3.8 8.4a.25.25 0 0 1-.13-.48 32.53 32.53 0 0 1 3.35-.18 2.2 2.2 0 0 1 1.04.39.25.25 0 0 1-.15.45zm-5.2 1.2a.13.13 0 0 1-.03-.24 4.68 4.68 0 0 1 .96-.13l1.6.06.25-.1-2.44-.68a.13.13 0 0 1-.1-.15.13.13 0 0 1 .16-.09l2.8.78a.13.13 0 0 1 .1.12.13.13 0 0 1-.08.12l-.62.24a.16.16 0 0 1-.05.01c-.02 0-1.23-.06-1.63-.06a4.6 4.6 0 0 0-.9.12.1.1 0 0 1-.03 0z"/><path d="M4.44 9.58l.84.04.62-.25-1.4-.4zm16.65 4.1H8.72a.13.13 0 0 1 0-.25H21.1a.13.13 0 0 1 0 .25zm-16.7-.25h-.03l-2.43-.47a.13.13 0 0 1 .05-.25l2.43.48a.13.13 0 0 1-.03.24z"/></g><circle cx="24.86" cy="3.19" r="3.2" fill="#1773cf"/><path d="M25.5 1.12l-1.65 2.3h.63l-.32 1.84 1.68-2.4h-.6l.25-1.74z" fill="#fff"/><defs ><path id="B" d="M6.54 16.2a2.44 2.44 0 1 1 2.44-2.45 2.44 2.44 0 0 1-2.44 2.44zm0-4.4a1.94 1.94 0 1 0 1.94 1.95 1.94 1.94 0 0 0-1.94-1.94z"/></defs></svg>