<svg xmlns="http://www.w3.org/2000/svg" viewBox="0 0 31 17"><path d="M4.96 14.1l-2.53-.54-.43-.64a6.57 6.57 0 0 1 .07-1.07c.08-.25.52-.75.47-1.35s-.5-1.55 1.7-3.44l-.6-.32S5.72 6 12.5 6a20.33 20.33 0 0 1 5.96 1.14l5.16 2.12c.42.1 1.05.18 1.32.23a14.94 14.94 0 0 1 3.44 1.45 1.58 1.58 0 0 1 .07.71s.5.36.47.67l-.13 1.3.28.4a7.07 7.07 0 0 1-2.96.41" fill="#fff"/><path d="M26.27 14.7h-.17a.25.25 0 0 1 0-.5c.05-.03.12 0 .17 0a8.44 8.44 0 0 0 2.4-.28l-.1-.15a.25.25 0 0 1-.04-.17l.13-1.3c0-.1-.18-.3-.37-.45a.25.25 0 0 1-.1-.25 1.27 1.27 0 0 0-.04-.53 16.35 16.35 0 0 0-3.27-1.34l-.36-.06-.96-.17a26.1 26.1 0 0 1-2.22-.9l-3-1.23a19.97 19.97 0 0 0-5.86-1.12 41.63 41.63 0 0 0-8.16.58l.03.02a.25.25 0 0 1 .05.41c-1.85 1.58-1.73 2.43-1.64 3l.02.24a2.15 2.15 0 0 1-.36 1.21 1.66 1.66 0 0 0-.11.23 5.51 5.51 0 0 0-.07.92l.33.5 2.44.52a.25.25 0 0 1 .19.3.24.24 0 0 1-.3.2l-2.54-.55a.25.25 0 0 1-.15-.1l-.42-.65a.26.26 0 0 1-.04-.14 6.22 6.22 0 0 1 .08-1.14 1.78 1.78 0 0 1 .16-.33 1.7 1.7 0 0 0 .3-.93l-.03-.2c-.08-.6-.23-1.6 1.54-3.2l-.28-.16a.25.25 0 0 1 .03-.45c.1-.04 2.18-.77 8.94-.77a20.57 20.57 0 0 1 6.04 1.16l3 1.24 2.13.86c.28.07.64.12.93.17l.37.06a14.66 14.66 0 0 1 3.57 1.51.25.25 0 0 1 .07.1 1.88 1.88 0 0 1 .1.7 1.08 1.08 0 0 1 .45.8l-.12 1.22.23.33a.25.25 0 0 1-.1.37 7.02 7.02 0 0 1-2.9.43z" fill="#053361"/><g fill="#dedfe0"><ellipse cx="15.57" cy="16.18" rx="11.43" ry=".57"/><circle cx="7.12" cy="13.74" r="2.19"/></g><path d="M7.12 16.2a2.44 2.44 0 1 1 2.45-2.45 2.44 2.44 0 0 1-2.45 2.45zm0-4.4a1.94 1.94 0 1 0 1.95 1.95 1.95 1.95 0 0 0-1.95-1.95z" fill="#053361"/><circle cx="24.02" cy="13.74" r="2.19" fill="#dedfe0"/><path d="M24.02 16.2a2.44 2.44 0 1 1 2.44-2.45 2.44 2.44 0 0 1-2.44 2.45zm0-4.4a1.94 1.94 0 1 0 1.94 1.95 1.95 1.95 0 0 0-1.94-1.95z" fill="#053361"/><circle cx="7.12" cy="13.74" r="1.25" fill="#fff"/><path d="M7.97 14.8a.13.13 0 0 1-.09-.22 1.22 1.22 0 0 0 .15-.16.13.13 0 0 1 .18-.03.12.12 0 0 1 .02.18 1.45 1.45 0 0 1-.18.2.13.13 0 0 1-.08.03zm-.84.32a1.38 1.38 0 0 1-1.09-.52 1.38 1.38 0 0 1 2.17-1.7 1.38 1.38 0 0 1 .26 1.13.13.13 0 1 1-.24-.05 1.13 1.13 0 0 0-.22-.93 1.11 1.11 0 0 0-.75-.42 1.14 1.14 0 0 0-.84.23 1.13 1.13 0 0 0 1.14 1.93.13.13 0 0 1 .17.06.13.13 0 0 1-.07.17 1.35 1.35 0 0 1-.53.1z" fill="#053361"/><circle cx="24.02" cy="13.74" r="1.25" fill="#fff"/><g fill="#053361"><path d="M24.02 15.12a1.38 1.38 0 0 1-1.26-.82.12.12 0 0 1 .06-.17.12.12 0 0 1 .17.06 1.14 1.14 0 0 0 .24.35 1.13 1.13 0 1 0 0-1.6 1.12 1.12 0 0 0-.33.77.13.13 0 0 1-.13.12.13.13 0 0 1-.12-.13 1.38 1.38 0 1 1 1.38 1.42zm-2.06-.38H10.7a.25.25 0 0 1 0-.5h11.26a.25.25 0 0 1 0 .5zm-19.4-4.1a.13.13 0 0 1-.02-.25l.62-.1a.86.86 0 0 1 .15-.53L4 9.1l-.9-.88a.13.13 0 1 1 .18-.18l.97.97a.13.13 0 0 1 .04.09.13.13 0 0 1-.04.09l-.78.77a.88.88 0 0 0-.08.45.13.13 0 0 1-.1.13l-.74.1z"/><path d="M3.2 8.12l.98.97-.28.27H2.53a3.02 3.02 0 0 1 .67-1.24z"/></g><path d="M22.66 9.94L7.28 8.88l-.9-1.55a43.46 43.46 0 0 1 6.24-.42c4.64 0 10.05 3.02 10.05 3.02z" fill="#dedfe0"/><path d="M22.66 10.2h-.01L7.27 9.13a.25.25 0 0 1-.2-.12l-.92-1.55a.25.25 0 0 1 .18-.38 43.77 43.77 0 0 1 6.28-.42c4.65 0 9.95 2.92 10.18 3.05a.25.25 0 0 1-.13.46zM7.43 8.64l14.02.95c-1.8-.86-5.55-2.43-8.84-2.43a44.05 44.05 0 0 0-5.84.36z" fill="#053361"/><path d="M7.3 8.9l-.82-.04" fill="#dedfe0"/><g fill="#053361"><path d="M7.28 9.14l-.82-.04a.25.25 0 0 1 0-.5h.02l.82.04a.25.25 0 0 1-.02.5zm13.16.9h.74a.3.3 0 0 0 .29-.3.3.3 0 0 0-.3-.28h-.73z"/><path d="M21.18 10.28h-.74a.25.25 0 0 1-.25-.25v-.58a.25.25 0 0 1 .25-.25h.74a.54.54 0 0 1 0 1.08zm-.5-.5h.5V9.7h-.5zm-5.9 2.7a.12.12 0 0 1-.13-.13c0-2.34-.43-6.07-.44-6.1a.13.13 0 0 1 .11-.14.13.13 0 0 1 .14.11c0 .04.44 3.78.44 6.14a.13.13 0 0 1-.13.12zm1.63-2.12h-1.03a.13.13 0 0 1 0-.25h1.02a.13.13 0 0 1 0 .25zM9.2 9.9h-1a.13.13 0 0 1 0-.25h1a.13.13 0 1 1 0 .25zm-1.4-.98a.13.13 0 0 1-.1-.2l1.26-1.75a.13.13 0 0 1 .17-.02.13.13 0 0 1 .03.17L7.9 8.87a.12.12 0 0 1-.1.05zm14.86 1.02l.66.35m0 .25a.25.25 0 0 1-.12-.03l-.66-.36a.25.25 0 0 1 .24-.44l.66.36a.25.25 0 0 1-.12.47zm-1.5 3.12H10.08a.12.12 0 0 1-.12-.15A2.08 2.08 0 0 0 9 11.45a.13.13 0 0 1 .14-.2 2.37 2.37 0 0 1 1.08 2.16h11.6a.13.13 0 0 1 0 .25zm6.13-2.1h-.02l-1.33-.23a.12.12 0 0 1-.1-.07 3.47 3.47 0 0 0-1.35-1.02.13.13 0 0 1-.07-.14.12.12 0 0 1 .12-.1h1.6a.13.13 0 0 1 0 .25h-1.1a2.91 2.91 0 0 1 1.01.84l1.22.2a1 1 0 0 0 .32-.43.13.13 0 0 1 .23.1 1.17 1.17 0 0 1-.46.58.12.12 0 0 1-.07.01z"/><path d="M27.37 11.34l-.74-.12c-.23-.53-1.42-1.1-1.42-1.1h1.24a3.86 3.86 0 0 1 .65.66c.14.24.27.55.27.55zm.26 2.53h-.02a.13.13 0 0 1-.1-.14l.2-1.4a.12.12 0 0 1 .14-.1.13.13 0 0 1 .1.13l-.2 1.4a.13.13 0 0 1-.13.11zM5 13.32a.1.1 0 0 1-.03 0l-1.27-.28a.13.13 0 0 1-.09-.15.12.12 0 0 1 .16-.09c.2.06 1.24.27 1.25.27a.13.13 0 0 1-.02.25z"/></g><path d="M23.94 6.4h2.54a1 1 0 0 0 .86-.5l1.27-2.2a1 1 0 0 0 0-1L27.34.5a1 1 0 0 0-.86-.5h-2.54a1 1 0 0 0-.86.5L21.8 2.7a1 1 0 0 0 0 1l1.27 2.2a1 1 0 0 0 .86.5z" fill="#28820a"/><path d="M26.57 3.2a2.77 2.77 0 0 1-.99 1.91l-.08.07a8.42 8.42 0 0 0-.29-2.16 8.42 8.42 0 0 0-.29 2.16l-.08-.07a2.71 2.71 0 0 1-.99-1.91 2.9 2.9 0 0 1 .98-1.87.46.46 0 0 1 .76 0 2.92 2.92 0 0 1 .98 1.87z" fill="#fff"/></svg>