<svg xmlns="http://www.w3.org/2000/svg" viewBox="0 0 31 17"><path d="M4.5 14.46l-3.66-.5a9.51 9.51 0 0 1-.24-1.58l.53-.88c.04-.1.1-1.53.15-1.98l2.6-.42a7.08 7.08 0 0 0 1.05-.37 18.16 18.16 0 0 1 6.4-1.67 22.02 22.02 0 0 1 6.37.43 14.64 14.64 0 0 1 3.92 2.15l4.7.38a9.04 9.04 0 0 1 3.72 1.23l.36 2.44a2.52 2.52 0 0 1-.17.77l-2.34.24" fill="#fff"/><path d="M27.9 14.95a.25.25 0 0 1-.02-.5 59.9 59.9 0 0 0 2.19-.22 2.77 2.77 0 0 0 .1-.52l-.35-2.32a9.24 9.24 0 0 0-3.52-1.12l-4.7-.38a.25.25 0 0 1-.13-.05 14.5 14.5 0 0 0-3.83-2.11 21.8 21.8 0 0 0-6.3-.42 16.9 16.9 0 0 0-6.22 1.61l-.08.04a7.23 7.23 0 0 1-1.12.39l-2.4.4-.07.9a4.14 4.14 0 0 1-.09.95c-.04.1-.34.58-.5.84a8.99 8.99 0 0 0 .2 1.3l3.48.47a.25.25 0 0 1 .21.28.24.24 0 0 1-.28.22L.8 14.2A.25.25 0 0 1 .6 14a9.67 9.67 0 0 1-.25-1.62.24.24 0 0 1 .04-.15l.5-.84.05-.78.08-1.13a.25.25 0 0 1 .2-.22l2.6-.4a7.11 7.11 0 0 0 1-.36l.07-.03a17.37 17.37 0 0 1 6.42-1.66 22.08 22.08 0 0 1 6.44.44 14.37 14.37 0 0 1 3.94 2.14l4.65.38a9.35 9.35 0 0 1 3.85 1.29.25.25 0 0 1 .09.16l.37 2.44a2.51 2.51 0 0 1-.2.92.25.25 0 0 1-.2.13c-.06 0-1.8.2-2.35.24z" fill="#053361"/><g fill="#dedfe0"><ellipse cx="16.23" cy="16.19" rx="12.94" ry=".57"/><circle cx="6.47" cy="13.89" r="2.06"/></g><path d="M6.47 16.2a2.31 2.31 0 1 1 2.31-2.31 2.31 2.31 0 0 1-2.3 2.31zm0-4.12a1.8 1.8 0 1 0 1.81 1.81 1.81 1.81 0 0 0-1.8-1.81z" fill="#053361"/><g fill="#fff"><circle cx="6.47" cy="13.89" r="1.18"/><path d="M5.4 14.34a1.18 1.18 0 1 1 .35.47"/></g><path d="M6.47 15.2a1.3 1.3 0 0 1-.8-.29.13.13 0 0 1 .15-.2 1.05 1.05 0 1 0-.4-.82 1.05 1.05 0 0 0 .08.42.13.13 0 0 1-.07.16.12.12 0 0 1-.16-.06 1.3 1.3 0 1 1 1.2.8z" fill="#053361"/><circle cx="26" cy="13.89" r="2.06" fill="#dedfe0"/><path d="M26 16.2a2.31 2.31 0 1 1 2.31-2.31A2.31 2.31 0 0 1 26 16.2zm0-4.12a1.8 1.8 0 1 0 1.81 1.81A1.81 1.81 0 0 0 26 12.08z" fill="#053361"/><g fill="#fff"><circle cx="26" cy="13.89" r="1.18"/><path d="M25.36 12.9a1.15 1.15 0 0 1 .43-.17 1.18 1.18 0 1 1-.91.79"/></g><path d="M26 15.2a1.3 1.3 0 0 1-1.28-1.07 1.28 1.28 0 0 1 .05-.64.12.12 0 0 1 .23.08 1.05 1.05 0 1 0 .82-.7 1.03 1.03 0 0 0-.4.14.13.13 0 0 1-.13-.2 1.28 1.28 0 0 1 .48-.2 1.3 1.3 0 0 1 .46 2.57 1.39 1.39 0 0 1-.23.02zm-1.9-.3H9.8a.25.25 0 1 1 0-.5h14.3a.25.25 0 0 1 0 .5z" fill="#053361"/><path d="M7.1 9.75c-.5-.6-.23-1 .34-1.17a14.27 14.27 0 0 1 3.68-.64 22.01 22.01 0 0 1 6.36.43 12.76 12.76 0 0 1 3.3 1.7z" fill="#dedfe0"/><g fill="#053361"><path d="M20.78 10.32L7.1 10a.25.25 0 0 1-.19-.09 1 1 0 0 1-.3-.94 1.02 1.02 0 0 1 .76-.63 14.27 14.27 0 0 1 3.75-.65 22.14 22.14 0 0 1 6.43.44 13.07 13.07 0 0 1 3.37 1.73.25.25 0 0 1-.14.46zM7.22 9.5l12.7.3a10.46 10.46 0 0 0-2.5-1.2 21.81 21.81 0 0 0-6.28-.41 13.78 13.78 0 0 0-3.62.63c-.23.07-.38.17-.4.3a.48.48 0 0 0 .12.38zM4.5 13.45h-.03a18.41 18.41 0 0 1-3.92-.96.13.13 0 1 1 .1-.23 18.6 18.6 0 0 0 3.86.94.13.13 0 0 1-.02.25zm-3.33-2.28a.13.13 0 1 1 0-.25c.34 0 .75-.36 1.05-.62l.2-.18a.62.62 0 0 0 .05-.04.73.73 0 0 0-.16-.01H1.24a.13.13 0 0 1 0-.25H2.3c.24 0 .38.06.42.17.06.16-.1.3-.15.33l-.2.16a2.18 2.18 0 0 1-1.21.69zM2.5 10.1z"/><path d="M2 9.94h.3c.1 0 .5.02.2.28l-.5.44zm20.6 4.04H8.58a.13.13 0 1 1 0-.25h13.96l.45-.97a.13.13 0 0 1 .16-.06.13.13 0 0 1 .06.17l-.48 1.04a.13.13 0 0 1-.11.07zm6.97-1.85c-.27 0-.3-.03-.33-.05l-.1-.08-.9-.65c-.05-.05-.2-.2-.15-.33s.24-.14.35-.13c.08 0 1.46.22 1.62.24a.13.13 0 0 1-.04.25l-1.6-.24h-.03a.27.27 0 0 0 .03.02c.2.2.65.5.86.64l.1.07c.1.01.46 0 .77-.01a.13.13 0 0 1 .13.12.13.13 0 0 1-.12.13l-.57.02z"/><path d="M29.32 11.98l-1-.73c-.3-.25.01-.24.1-.24l.66.1zm-20.08-1.2H8.22a.13.13 0 0 1 0-.25h1.02a.13.13 0 0 1 0 .25zm7 0h-1a.13.13 0 0 1 0-.25h1a.13.13 0 0 1 0 .25zm-1.4 2.37a.13.13 0 0 1-.13-.11 51 51 0 0 0-.81-5.96.13.13 0 0 1 .1-.14.12.12 0 0 1 .15.1 51.63 51.63 0 0 1 .82 5.99.13.13 0 0 1-.12.13zm4.33-2.8h.74a.3.3 0 0 0 .29-.3.3.3 0 0 0-.3-.28h-.73z"/><path d="M19.9 10.6h-.73a.25.25 0 0 1-.25-.25v-.58a.25.25 0 0 1 .25-.25h.74a.54.54 0 0 1 0 1.08zm-.48-.5h.5V10h-.5zm-10.1-.16a.13.13 0 0 1-.13-.12l-.1-1.66a.13.13 0 0 1 .25-.01l.1 1.65a.13.13 0 0 1-.13.14zM7.1 10h-.9a.25.25 0 0 1 0-.5h.9a.25.25 0 1 1 0 .5zm21.95 3.86a.13.13 0 0 1-.13-.12.13.13 0 0 1 .12-.13l1.36-.04a.13.13 0 0 1 0 .25l-1.35.04z"/></g></svg>