<svg xmlns="http://www.w3.org/2000/svg" viewBox="0 0 31 17"><path d="M4.4 13.9l-3.1-.58c-.28-.06-.74-.3-.65-2.15 0 0 .45-.4.45-.7a3.35 3.35 0 0 1 .34-2.78 17.66 17.66 0 0 1 1.5-1.77l-.35-.58.36-.1L12.78 5c4.47 0 6.1.5 6.46.6a34.6 34.6 0 0 1 4.35 2.2 8.04 8.04 0 0 0 2.94 1.1 14.42 14.42 0 0 1 1.96.54 2.73 2.73 0 0 1 1.08 1.42 3.94 3.94 0 0 1 .66.72l-.1 1.86.26.46a18.04 18.04 0 0 1-2.78.36" fill="#fff"/><path d="M27.6 14.52a.25.25 0 0 1 0-.5 15.55 15.55 0 0 0 2.4-.3l-.1-.15a.26.26 0 0 1-.03-.14l.1-1.78a4.4 4.4 0 0 0-.57-.59.27.27 0 0 1-.07-.1 2.44 2.44 0 0 0-.97-1.29 15.05 15.05 0 0 0-1.9-.51l-.07-.02a8.1 8.1 0 0 1-2.96-1.12 34.92 34.92 0 0 0-4.28-2.17 22.73 22.73 0 0 0-6.38-.6l-9.82.23.2.3a.25.25 0 0 1-.04.31 18.14 18.14 0 0 0-1.48 1.74 2.7 2.7 0 0 0-.34 2.31 1.83 1.83 0 0 1 .05.33 1.36 1.36 0 0 1-.46.81c-.04 1.1.1 1.72.46 1.8l3.1.58a.25.25 0 0 1 .2.3.25.25 0 0 1-.29.2l-3.12-.6c-.66-.15-.92-.9-.85-2.4A.25.25 0 0 1 .47 11a1.15 1.15 0 0 0 .36-.52l-.04-.23a3.19 3.19 0 0 1 .43-2.7 19.88 19.88 0 0 1 1.4-1.66l-.26-.4a.25.25 0 0 1 .15-.37l.37-.1c.1-.01 5.48-.24 9.9-.24a23.07 23.07 0 0 1 6.54.62 34.91 34.91 0 0 1 4.4 2.23 7.63 7.63 0 0 0 2.78 1.04l.07.02a14.3 14.3 0 0 1 2.05.57 2.92 2.92 0 0 1 1.17 1.49 3.56 3.56 0 0 1 .66.75.26.26 0 0 1 .03.12l-.1 1.8.23.4a.25.25 0 0 1-.17.37 18.03 18.03 0 0 1-2.83.37z" fill="#053361"/><g fill="#dedfe0"><ellipse cx="16.01" cy="16.19" rx="12.62" ry=".57"/><circle cx="6.81" cy="13.53" r="2.41"/></g><path d="M6.8 16.2a2.66 2.66 0 1 1 2.66-2.66 2.66 2.66 0 0 1-2.66 2.66zm0-4.82a2.16 2.16 0 1 0 2.16 2.16 2.17 2.17 0 0 0-2.16-2.16z" fill="#053361"/><circle cx="6.81" cy="13.53" r="1.38" fill="#fff"/><circle cx="25.32" cy="13.53" r="2.41" fill="#dedfe0"/><path d="M25.32 16.2a2.66 2.66 0 1 1 2.66-2.66 2.67 2.67 0 0 1-2.66 2.66zm0-4.82a2.16 2.16 0 1 0 2.16 2.16 2.17 2.17 0 0 0-2.16-2.16z" fill="#053361"/><circle cx="25.32" cy="13.53" r="1.38" fill="#fff"/><g fill="#053361"><path d="M25.32 15.03a1.5 1.5 0 0 1-1.14-2.48 1.51 1.51 0 0 1 1.85-.35.13.13 0 0 1 .05.18.13.13 0 0 1-.17.05 1.26 1.26 0 1 0 .56 1.59.13.13 0 0 1 .16-.07.13.13 0 0 1 .07.17 1.5 1.5 0 0 1-1.38.9zm-18.04-.08a.13.13 0 0 1-.04-.25 1.25 1.25 0 1 0-1.41-1.95.13.13 0 0 1-.2-.15 1.5 1.5 0 1 1 1.7 2.34.1.1 0 0 1-.05 0zm-.53.08a1.48 1.48 0 0 1-.63-.17 1.51 1.51 0 0 1-.75-1.73.12.12 0 0 1 .15-.09.12.12 0 0 1 .08.16 1.26 1.26 0 0 0 .63 1.44 1.24 1.24 0 0 0 .52.14.13.13 0 0 1 0 .25zm19.95-1.4a.13.13 0 0 1-.13-.12 1.24 1.24 0 0 0-.25-.73.13.13 0 0 1 .2-.15 1.49 1.49 0 0 1 .3.87.12.12 0 0 1-.12.13zm-3.74.66H10.3a.25.25 0 0 1 0-.5h12.67a.25.25 0 0 1 0 .5zM4.33 5.26l-.17-.2.42-.35a1.37 1.37 0 0 1 .73-.25c.67-.05 7.02-.14 7.95 0a8.53 8.53 0 0 1 1.7.46.13.13 0 0 1 .08.16.13.13 0 0 1-.16.07 8.41 8.41 0 0 0-1.66-.44c-.9-.15-7.23-.05-7.9 0a1.15 1.15 0 0 0-.58.19z"/><path d="M5.58 5.3a.13.13 0 0 1-.09-.03.13.13 0 0 1 0-.18 2.06 2.06 0 0 1 1.15-.66.13.13 0 0 1 0 .25c-.45.01-.97.57-.98.58a.13.13 0 0 1-.08.04zm7.3-.16a.13.13 0 0 1-.11-.08 1.19 1.19 0 0 0-.39-.4.13.13 0 0 1 .14-.2 1.4 1.4 0 0 1 .48.51.13.13 0 0 1-.12.17zM2.7 9.68H.92a.13.13 0 0 1 0-.25h1.72l.47-.48c.05-.06.05-.1.05-.1A.61.61 0 0 0 3 8.83H1.84c-.5 0-.8-.57-.82-.6a.13.13 0 0 1 .23-.11s.25.47.6.47H3c.05 0 .3 0 .4.18a.32.32 0 0 1-.1.34c-.22.25-.52.53-.53.54a.13.13 0 0 1-.08.03zm0-.13z"/><path d="M.92 9.55H2.7l.4-.4H.92zm28.65 1.57a.11.11 0 0 1-.05 0l-1.9-.85-.03-.01-.68-.55a.13.13 0 0 1-.04-.15.14.14 0 0 1 .14-.07l2.06.33a.13.13 0 1 1-.03.25l-1.6-.26.3.24 1.9.83a.12.12 0 0 1 .06.17.13.13 0 0 1-.12.07z"/><path d="M28.28 10.43l-.62-.27-.68-.55.93.15.37.67z"/></g><path d="M22.44 8.87L3.5 8.03c-.26 0-.42-.48-.34-.72a4.7 4.7 0 0 1 1.08-1.24l.97-.1 7.56-.14c4.47 0 6.1.5 6.46.6a22.33 22.33 0 0 1 4.04 2.26z" fill="#dedfe0"/><g fill="#053361"><path d="M22.44 9.12h-.01L3.5 8.28a.53.53 0 0 1-.42-.24 1 1 0 0 1-.16-.8 4.45 4.45 0 0 1 1.15-1.36.25.25 0 0 1 .14-.06l1-.1 7.57-.14a23.06 23.06 0 0 1 6.54.62 22.64 22.64 0 0 1 4.12 2.3.25.25 0 0 1-.11.45l-.84.17a.2.2 0 0 1-.05 0zM3.54 7.8c.3 0 17.77.78 18.88.83l.25-.05a24.98 24.98 0 0 0-3.5-1.9 22.65 22.65 0 0 0-6.39-.6c-2.23 0-5.44.02-7.54.16-.2 0-.7.06-.9.08a3.83 3.83 0 0 0-.95 1.1.5.5 0 0 0 .13.37zm13.98 1.68h-1a.13.13 0 0 1 0-.25h1a.13.13 0 0 1 0 .25zm-2.3 0h-1a.13.13 0 0 1 0-.25h1.02a.13.13 0 0 1 0 .25z"/><path d="M15.9 12.28a.13.13 0 0 1-.12-.13v-7a.13.13 0 0 1 .25 0v7a.12.12 0 0 1-.12.13zm5.92-3.18h.74a.3.3 0 0 0 .29-.3.3.3 0 0 0-.3-.28h-.73z"/><path d="M22.56 9.35h-.74a.25.25 0 0 1-.25-.25v-.6a.25.25 0 0 1 .25-.25h.74a.54.54 0 1 1 0 1.09zm-.5-.5h.5v-.1h-.5zm.88 4.44H10a.13.13 0 0 1-.12-.1 3.52 3.52 0 0 0-1.81-2.5.13.13 0 0 1-.07-.16.12.12 0 0 1 .16-.07 3.61 3.61 0 0 1 1.94 2.58h12.84a.13.13 0 0 1 0 .25zM7.6 10.54a.18.18 0 0 1-.03 0 2.5 2.5 0 0 0-.5-.08.13.13 0 0 1 0-.25 2.69 2.69 0 0 1 .56.08.13.13 0 0 1-.03.25zm.78-2.17a.12.12 0 0 1-.04 0 .12.12 0 0 1-.08-.16L9 5.8a.13.13 0 0 1 .15-.08.12.12 0 0 1 .09.16l-.75 2.4a.13.13 0 0 1-.12.09zM3.6 12H3.6c-1.06-.18-2.97-.7-3-.7a.13.13 0 0 1 .07-.25c.02 0 1.9.53 2.96.7a.13.13 0 0 1-.02.24z"/></g></svg>