<svg xmlns="http://www.w3.org/2000/svg" xmlns:xlink="http://www.w3.org/1999/xlink" viewBox="0 0 31 17"><path d="M28.08 13.52h2.33s.3-.15.3-.35c0-.48.1-.9-.43-1.1v-2.7a2.46 2.46 0 0 0-.56-.39c-.07-.03-1.6-.3-3.3-.47l-2.4-.2-3.48-2.17a4.35 4.35 0 0 0-1.74-.42c-.1-.01-5.67-.14-6.5-.08s-1.4.1-1.5.47a23.78 23.78 0 0 0-.32 2.39H1.73c-.3 0-.77-.04-.9.3a10.67 10.67 0 0 0-.07 3.62H.34a1.36 1.36 0 0 0 0 .88c.05.16.13.22.57.28a31.05 31.05 0 0 0 3.84.1" fill="#fff"/><path d="M3.1 13.93a17.72 17.72 0 0 1-2.2-.1c-.46-.07-.68-.14-.8-.45a1.62 1.62 0 0 1 .03-1.1.28.28 0 0 1 .21-.1h.14A10.72 10.72 0 0 1 .6 8.7c.17-.47.72-.46 1.04-.46h8.63l.3-2.2c.16-.55.84-.6 1.7-.65.8-.05 6.35.06 6.55.08a4.61 4.61 0 0 1 1.82.45c.8.4 3.05 1.9 3.46 2.15a47 47 0 0 1 5.7.68s.72.34.72.63v2.53a1.02 1.02 0 0 1 .44 1.08v.18c0 .34-.38.54-.46.57a.26.26 0 0 1-.1.03h-2.33a.25.25 0 0 1 0-.5h2.27a.4.4 0 0 0 .13-.11v-.2c0-.42 0-.56-.28-.66a.25.25 0 0 1-.17-.24v-2.6a3.83 3.83 0 0 0-.4-.26 44.68 44.68 0 0 0-5.61-.65.26.26 0 0 1-.13-.04c-.03-.01-2.6-1.74-3.46-2.15a4.04 4.04 0 0 0-1.59-.4c-.3-.02-5.73-.14-6.52-.1-.6.04-1.2.08-1.27.3-.1.33-.3 2.03-.3 2.32a.25.25 0 0 1-.25.24H1.64c-.2 0-.52 0-.57.13a10.59 10.59 0 0 0-.06 3.5.25.25 0 0 1-.25.3H.53a1.59 1.59 0 0 0 .05.56c.02.03.1.06.37.1a22.5 22.5 0 0 0 2.97.1l.83-.01a.25.25 0 1 1 0 .5h-.83-.83zm9.87-3.83h-1.02a.13.13 0 1 1 0-.24h1.02a.13.13 0 1 1 0 .25zm5.78 0h-1.02a.13.13 0 0 1 0-.24h1.02a.13.13 0 0 1 0 .25z" fill="#053361"/><g fill="#dedfe0"><ellipse cx="16.36" cy="16.19" rx="12.62" ry=".57"/><circle cx="7.16" cy="13.54" r="2.41"/></g><use xlink:href="#B" fill="#053361"/><circle cx="7.16" cy="13.54" r="1.38" fill="#fff"/><circle cx="25.67" cy="13.54" r="2.41" fill="#dedfe0"/><use xlink:href="#B" x="18.51" fill="#053361"/><circle cx="25.67" cy="13.54" r="1.38" fill="#fff"/><path d="M24.32 13.36a.12.12 0 0 1-.12-.14 1.5 1.5 0 0 1 .46-.8.12.12 0 1 1 .17.19 1.26 1.26 0 0 0-.39.66.12.12 0 0 1-.12.1zm1.35 1.68a1.51 1.51 0 0 1-1.47-1.19.13.13 0 1 1 .24-.05 1.25 1.25 0 1 0 1.23-1.52 1.24 1.24 0 0 0-.37.06.13.13 0 0 1-.08-.24 1.48 1.48 0 0 1 .45-.07 1.5 1.5 0 0 1 0 3zM23.26 14H10.7a.25.25 0 0 1 0-.5h12.56a.25.25 0 1 1 0 .5zm-18.5-1.3h-2.4a20.84 20.84 0 0 1-1.45-.1.13.13 0 0 1-.11-.14.12.12 0 0 1 .14-.1l1.42.1h2.4a.13.13 0 1 1 0 .24z" fill="#053361"/><path d="M12.3 8.63l6.05.1c.58.01 1 .47 1.58.47l2.24.04c.23 0 .12-.47.1-.58-.18-.58-.82-.8-1.32-1.06a6.27 6.27 0 0 0-2.51-.92L12.8 6.6c-.4 0-.86-.03-.9.48l-.06 1.1c0 .08-.02.38.46.45z" fill="#dedfe0"/><g fill="#053361"><path d="M22.18 9.48h-.23l-2-.02a2.12 2.12 0 0 1-.9-.27 1.7 1.7 0 0 0-.69-.2l-6.08-.1c-.45-.08-.7-.34-.68-.72l.07-1.1c.05-.72.72-.72 1.08-.72l5.7.08a5.43 5.43 0 0 1 2.27.77l.55.28a2.02 2.02 0 0 1 1.24 1.1.97.97 0 0 1-.03.76.36.36 0 0 1-.3.14zm-9.84-1.1c.3.02 5.97.1 6.03.1a2.1 2.1 0 0 1 .88.26 1.69 1.69 0 0 0 .7.21l2 .03h.1a1.1 1.1 0 0 0-.04-.26c-.12-.4-.56-.6-.98-.8l-.57-.28a4.95 4.95 0 0 0-2.05-.71c-.3-.02-5.57-.1-5.6-.1h-.07c-.5 0-.57.05-.6.25l-.06 1.1c0 .06 0 .15.24.2z"/><path d="M17.08 12.23a.12.12 0 0 1-.13-.13 45.64 45.64 0 0 0-.83-6.45.13.13 0 0 1 .1-.15.12.12 0 0 1 .15.1 46.13 46.13 0 0 1 .83 6.5.12.12 0 0 1-.12.13zM21.25 9.2H22a.3.3 0 0 0 .3-.3.3.3 0 0 0-.3-.28h-.74z"/><path d="M22 9.45h-.75A.25.25 0 0 1 21 9.2v-.58a.25.25 0 0 1 .25-.25H22a.54.54 0 0 1 0 1.08zm-.5-.5h.5v-.08h-.5zm1.9 3.9H10.23a.12.12 0 0 1-.13-.12 2.46 2.46 0 0 0-1.6-1.95.12.12 0 0 1-.07-.16.13.13 0 0 1 .16-.07 2.73 2.73 0 0 1 1.75 2.05H23.4a.13.13 0 0 1 0 .25zm-21.9-1.6H.76a.13.13 0 1 1 0-.25h.76c.02 0 .07 0 .07-.06v-.73a.36.36 0 0 1 .1-.25l.3-.3c.02-.01.02-.02.02-.07v-.3l-1 .02a1.51 1.51 0 0 1-.29-.03.13.13 0 0 1 .06-.25 1.24 1.24 0 0 0 .23.03h1a.25.25 0 0 1 .24.23v.3a.32.32 0 0 1-.12.28c-.07.04-.3.24-.3.26a.11.11 0 0 0-.03.08v.72a.3.3 0 0 1-.31.3zm6.68 3.35a.12.12 0 0 1-.09-.04.12.12 0 0 1 0-.18 1.25 1.25 0 1 0-2.16-1.07.13.13 0 0 1-.15.1.13.13 0 0 1-.1-.15 1.5 1.5 0 1 1 2.59 1.29.13.13 0 0 1-.1.04zm-1.02.44a1.51 1.51 0 0 1-1.47-1.19.13.13 0 0 1 .1-.14.12.12 0 0 1 .15.1 1.25 1.25 0 0 0 1.76.87.13.13 0 0 1 .1.22 1.5 1.5 0 0 1-.64.14zm3.34-5.18a.25.25 0 0 1-.25-.25V8.5a.25.25 0 0 1 .5 0v1.1a.25.25 0 0 1-.25.26zm13.52-1.3L22.9 8.5a.25.25 0 0 1-.23-.26.25.25 0 0 1 .26-.24l1.12.07z"/><path d="M.77 9.17a1.43 1.43 0 0 0 .26.03h1s.1.02.1.1v.3a.2.2 0 0 1-.07.17l-.32.28-1 .85zm29.52 3.15h-1.1a.25.25 0 0 1 0-.5h1.1a.25.25 0 0 1 0 .5zM8.05 10.64a.15.15 0 0 1-.03 0 2.47 2.47 0 0 0-.5-.07.13.13 0 1 1 0-.25 2.65 2.65 0 0 1 .56.08.13.13 0 0 1-.03.25zm22.24.77h-.6a.4.4 0 0 1-.38-.41v-.57a.29.29 0 0 0-.09-.19l-.4-.34a.12.12 0 0 1-.04-.1v-.24a.27.27 0 0 1 .29-.24h1.2a.13.13 0 0 1 0 .25h-1.2a.1.1 0 0 0-.05.01v.17l.37.32a.53.53 0 0 1 .16.36V11s0 .16.13.16h.6a.13.13 0 0 1 0 .25z"/><path d="M29.55 10.43c0-.14-.2-.24-.24-.27l-.4-.35v-.25c0-.08.1-.12.17-.12h1.2z"/></g><defs ><path id="B" d="M7.16 16.2a2.66 2.66 0 1 1 2.66-2.66 2.66 2.66 0 0 1-2.66 2.66zm0-4.82a2.16 2.16 0 1 0 2.16 2.16 2.16 2.16 0 0 0-2.16-2.17z"/></defs></svg>