<svg xmlns="http://www.w3.org/2000/svg" viewBox="0 0 31 17"><path d="M5.9 14.14l-2.8-.4c-.36-.05-.82-.43-.78-1.48v-.96l.45-.42V9.13L4.6 8.9c.2-.04 2.2-1.15 3.18-1.54a11.36 11.36 0 0 1 5.24-.85 16 16 0 0 1 4.95.57c.3.08 4 1.98 4 1.98a17 17 0 0 1 5.92 1.74c.5.3.7 1.53.77 1.9a5 5 0 0 1-.6 1.44h-2.5" fill="#fff"/><path d="M28.06 14.4h-2.48a.25.25 0 0 1 0-.5h2.34a4.6 4.6 0 0 0 .5-1.16l-.03-.14c-.08-.37-.27-1.37-.63-1.6a16.84 16.84 0 0 0-5.8-1.7.24.24 0 0 1-.1-.02L17.9 7.32l-.13-.04a16.28 16.28 0 0 0-4.76-.52 11.2 11.2 0 0 0-4.98.77l-.16.07c-.57.23-1.5.7-2.2 1.06a8.48 8.48 0 0 1-1 .48c-.17.04-1.15.16-1.64.22v1.54a.25.25 0 0 1-.08.18l-.37.34v.86c-.03.84.3 1.2.57 1.23l2.8.4-.07.5-2.8-.4c-.48-.07-1.03-.57-1-1.73v-.96a.25.25 0 0 1 .09-.18l.37-.34V9.13a.25.25 0 0 1 .22-.25l1.8-.23c.07-.02.5-.23.88-.44l2.25-1.08.16-.06a11.71 11.71 0 0 1 5.17-.8 16.75 16.75 0 0 1 4.9.54l.1.03c.32.08 3.32 1.62 4.03 1.98a16.79 16.79 0 0 1 5.98 1.77 3.01 3.01 0 0 1 .85 1.92l.03.14a3.67 3.67 0 0 1-.63 1.62.25.25 0 0 1-.22.12z" fill="#053361"/><path d="M7.67 8.5c.95-.5 1.9-1.04 5.2-1.04a16 16 0 0 1 4.95.57c.2.05 1.67.8 2.78 1.36H6.1l1.56-.9z" fill="#dedfe0"/><g fill="#053361"><path d="M20.6 9.64H6.1a.25.25 0 0 1-.12-.47c.04-.02 1.05-.63 1.58-.9l.1-.05c.92-.47 1.96-1 5.2-1a16.74 16.74 0 0 1 4.9.54l.1.03a26.59 26.59 0 0 1 2.84 1.37.25.25 0 0 1-.11.48zm-13.57-.5h12.5a21.27 21.27 0 0 0-1.8-.87l-.13-.03a16.27 16.27 0 0 0-4.75-.53c-3.12 0-4.06.5-4.97.95l-.1.06-.76.42zm.64-.65zM3.34 9.82a.92.92 0 0 1 .42.96c-.03.1-.2.14-.42.15zm24.3 2.24h-.25c-.28 0-.98-.93-.76-.96a4.05 4.05 0 0 1 .67-.05z"/><path d="M14.47 12.62a.13.13 0 0 1-.13-.11 67.75 67.75 0 0 0-.87-5.97.12.12 0 0 1 .24-.04c.01.03.7 3.7.88 6a.13.13 0 0 1-.11.13zm-4.14-1.95H9.3a.13.13 0 0 1 0-.25h1.02a.13.13 0 0 1 0 .25zm5.6 0H14.9a.13.13 0 0 1 0-.25h1.02a.13.13 0 1 1 0 .25zm2.37-1h.74a.3.3 0 0 0 .29-.3.3.3 0 0 0-.3-.28h-.73z"/><path d="M19.04 9.93h-.74a.25.25 0 0 1-.25-.25V9.1a.25.25 0 0 1 .25-.25h.74a.54.54 0 1 1 0 1.08zm-.5-.5h.5v-.08h-.5z"/></g><g fill="#dedfe0"><ellipse cx="15.72" cy="16.19" rx="10.79" ry=".57"/><circle cx="8.06" cy="13.75" r="2.19"/></g><path d="M8.06 16.2a2.44 2.44 0 1 1 2.44-2.45 2.45 2.45 0 0 1-2.44 2.44zm0-4.4A1.94 1.94 0 1 0 10 13.76a1.94 1.94 0 0 0-1.94-1.94z" fill="#053361"/><circle cx="8.06" cy="13.75" r="1.25" fill="#fff"/><path d="M8.06 15.13a1.38 1.38 0 1 1 .5-2.66.13.13 0 0 1 .07.16.13.13 0 0 1-.16.07 1.1 1.1 0 0 0-.41-.08 1.13 1.13 0 1 0 .82.36.13.13 0 0 1 .18-.17 1.38 1.38 0 0 1-1 2.32z" fill="#053361"/><circle cx="23.39" cy="13.75" r="2.19" fill="#dedfe0"/><path d="M23.4 16.2a2.44 2.44 0 1 1 2.44-2.45 2.45 2.45 0 0 1-2.44 2.44zm0-4.4a1.94 1.94 0 1 0 1.94 1.95 1.94 1.94 0 0 0-1.94-1.94z" fill="#053361"/><circle cx="23.39" cy="13.75" r="1.25" fill="#fff"/><path d="M21.23 14.4h-9.68a.25.25 0 0 1 0-.5h9.68a.25.25 0 0 1 0 .5zm.95-.2a.12.12 0 0 1-.12-.1 1.28 1.28 0 0 1-.05-.26.12.12 0 0 1 .12-.13.13.13 0 0 1 .13.12 1.03 1.03 0 0 0 .04.21.13.13 0 0 1-.09.16.1.1 0 0 1-.03 0zm1.22.93a1.38 1.38 0 0 1-1.06-.5.12.12 0 0 1 .02-.17.13.13 0 0 1 .17.01 1.13 1.13 0 1 0-.22-1.02.12.12 0 0 1-.15.09.12.12 0 0 1-.1-.15 1.38 1.38 0 1 1 1.34 1.74zm-2.13-1.77H10.2a.13.13 0 0 1 0-.25h11.07a.13.13 0 0 1 0 .25zm7.27 0h-3a.13.13 0 0 1 0-.25h3a.13.13 0 0 1 0 .25zM9.3 9.5a.14.14 0 0 1-.03 0 .13.13 0 0 1-.09-.15l.4-1.66a.13.13 0 0 1 .15-.1.13.13 0 0 1 .1.15l-.4 1.66a.13.13 0 0 1-.12.1zm19.2 2.67h-1.1c-.33 0-.92-.74-.94-1a.17.17 0 0 1 .15-.2 7.11 7.11 0 0 1 1.57 0 .13.13 0 0 1 .11.14.12.12 0 0 1-.14.1 7.53 7.53 0 0 0-1.42 0c.08.2.5.72.66.72h1.1a.13.13 0 0 1 0 .25zm-1.85-.96zm-23.4-.16a3.61 3.61 0 0 1-.5-.04.13.13 0 0 1-.1-.14.12.12 0 0 1 .14-.11 1.68 1.68 0 0 0 .84-.03c.17-.76-.88-1.08-.9-1.08a.13.13 0 1 1 .07-.24c.45.13 1.24.6 1.07 1.38-.04.2-.32.26-.62.26zm1.16.62c-1.75 0-2.13-.24-2.17-.27a.13.13 0 0 1-.02-.18.13.13 0 0 1 .17-.03 5.17 5.17 0 0 0 2.33.23.13.13 0 0 1 0 .25h-.3z" fill="#053361"/><path d="M20.6 9.4l.62.3" fill="#dedfe0"/><path d="M21.2 9.95a.25.25 0 0 1-.1-.03l-.62-.3a.25.25 0 0 1 .23-.45l.6.32a.25.25 0 0 1-.11.47z" fill="#053361"/></svg>