<svg xmlns="http://www.w3.org/2000/svg" viewBox="0 0 31 17"><path d="M5.97 14.44l-2.43-.12a1.05 1.05 0 0 1-.64-.3l-.73-1 .25-.7-.17-.86.93-1.17s-.3-.27-.13-.43c.13-.13.27-.1 1.15-.1s5.75-1.6 6.92-1.8 3.9-.48 5.38.14 3.86 1.88 3.86 1.88a34.7 34.7 0 0 1 5.86.4 9.07 9.07 0 0 1 2.36 1.1l-.08.8.24.6-.08.7.2 1.1-2.77.1" fill="#fff"/><path d="M26.1 15.03a.25.25 0 0 1 0-.5l2.47-.1-.15-.8a.27.27 0 0 1 0-.08l.07-.64-.22-.53a.26.26 0 0 1-.01-.12l.07-.67a9.13 9.13 0 0 0-2.18-.98 34.97 34.97 0 0 0-5.78-.38.25.25 0 0 1-.11-.03c-.03-.01-2.38-1.27-3.84-1.87-1.4-.6-4.05-.34-5.24-.13-.48.08-1.63.4-2.84.77A29 29 0 0 1 4.2 9.98h-.37a4.23 4.23 0 0 0-.55.02.56.56 0 0 0 .07.08.25.25 0 0 1 .03.34l-.86 1.08.15.75a.26.26 0 0 1-.01.13l-.2.58.66.92a.93.93 0 0 0 .43.18l2.44.12a.25.25 0 0 1-.02.5l-2.42-.12a1.26 1.26 0 0 1-.86-.41 45.3 45.3 0 0 0-.72-1 .25.25 0 0 1-.03-.24l.24-.63-.16-.8a.25.25 0 0 1 .05-.2l.8-1a.57.57 0 0 1-.11-.3.42.42 0 0 1 .13-.31c.18-.18.34-.18.95-.18h.37a31.84 31.84 0 0 0 4-1.02l2.9-.78c1.34-.23 4-.46 5.52.16 1.35.56 3.45 1.67 3.82 1.86a31.47 31.47 0 0 1 5.87.4 9.28 9.28 0 0 1 2.43 1.14.26.26 0 0 1 .1.23l-.07.75.22.54a.25.25 0 0 1 .02.12l-.08.67.2 1.05a.25.25 0 0 1-.05.2.24.24 0 0 1-.18.1l-2.78.1z" fill="#053361"/><g fill="#dedfe0"><ellipse cx="16.1" cy="16.19" rx="11.39" ry=".57"/><circle cx="7.95" cy="13.88" r="2.06"/></g><path d="M7.95 16.2a2.3 2.3 0 1 1 2.31-2.32 2.31 2.31 0 0 1-2.3 2.31zm0-4.12a1.8 1.8 0 1 0 1.81 1.8 1.81 1.81 0 0 0-1.8-1.8z" fill="#053361"/><g fill="#fff"><circle cx="7.95" cy="13.88" r="1.18"/><path d="M7.06 13.12a1.16 1.16 0 0 1 .37-.29 1.18 1.18 0 1 1-.63.81"/></g><path d="M7.95 15.2a1.3 1.3 0 0 1-1.27-1.58.13.13 0 0 1 .15-.1.13.13 0 0 1 .1.15 1.05 1.05 0 1 0 .22-.46.12.12 0 0 1-.17.01.13.13 0 0 1-.02-.18 1.3 1.3 0 1 1 1 2.15z" fill="#053361"/><circle cx="24.24" cy="13.88" r="2.06" fill="#dedfe0"/><path d="M24.24 16.2a2.3 2.3 0 1 1 2.3-2.32 2.31 2.31 0 0 1-2.3 2.31zm0-4.12a1.8 1.8 0 1 0 1.8 1.8 1.81 1.81 0 0 0-1.8-1.8z" fill="#053361"/><g fill="#fff"><circle cx="24.24" cy="13.88" r="1.18"/><path d="M23.14 14.3a1.18 1.18 0 1 1 1.51.69 1.16 1.16 0 0 1-.48.07"/></g><path d="M24.24 15.2h-.07a.13.13 0 0 1-.12-.14.13.13 0 0 1 .13-.11.95.95 0 0 0 .43-.07 1.05 1.05 0 0 0 .06-1.94 1.04 1.04 0 0 0-.8-.03 1.05 1.05 0 0 0-.61 1.36.13.13 0 0 1-.07.16.13.13 0 0 1-.17-.08 1.3 1.3 0 1 1 1.23.85zm-1.88-.23H11.34a.25.25 0 0 1 0-.5h11.02a.25.25 0 0 1 0 .5z" fill="#053361"/><path d="M18.86 10a36.9 36.9 0 0 0-2.36-1.1c-1.48-.62-4.2-.36-5.38-.15-.4.07-1.18.3-2.1.55l.4.5z" fill="#dedfe0"/><g fill="#053361"><path d="M18.86 10.24l-9.44-.2a.25.25 0 0 1-.19-.08l-.4-.5a.25.25 0 0 1 .12-.4l2.14-.56c1.34-.24 4-.47 5.5.15l2.37 1.12a.25.25 0 0 1-.11.47zm-9.32-.7l8.2.17q-.8-.37-1.33-.6c-1.4-.58-4.04-.34-5.24-.13-.34.06-1 .24-1.72.45z"/><path d="M17 10.22h.73a.3.3 0 0 0 .3-.29.3.3 0 0 0-.3-.29H17z"/><path d="M17.73 10.47H17a.25.25 0 0 1-.25-.25v-.58a.25.25 0 0 1 .25-.25h.74a.54.54 0 0 1 0 1.08zm-.5-.5h.5V9.9h-.5zm-5.04 2.86a.13.13 0 0 1-.12-.08 7.23 7.23 0 0 1-.52-1.95 2.37 2.37 0 0 1 .36-.97l-.65-1.9a.13.13 0 1 1 .23-.08l.67 1.95a.13.13 0 0 1-.02.11 2.25 2.25 0 0 0-.35.9 6.96 6.96 0 0 0 .5 1.84.12.12 0 0 1-.1.17zm1.2-1.93h-1a.13.13 0 0 1 0-.24h1.02a.13.13 0 0 1 0 .25zm-10.28.5a.14.14 0 0 1-.06-.01l-.52-.28a.13.13 0 1 1 .12-.22l.42.23.42-.53-.35-.33a.12.12 0 0 1 0-.17.13.13 0 0 1 .17 0l.44.4a.13.13 0 0 1 0 .16l-.55.7a.12.12 0 0 1-.1.05zm2.85 2.04l-3.8-.32a.13.13 0 0 1-.13-.13.12.12 0 0 1 .13-.11l3.8.3a.13.13 0 0 1 0 .25zm21.83-1.3h-.01l-1.1-.1a.13.13 0 0 1-.07-.04l-.67-.66a.13.13 0 0 1-.03-.14.13.13 0 0 1 .12-.07 12.42 12.42 0 0 1 1.98.22.13.13 0 0 1 .1.17l-.2.55a.13.13 0 0 1-.12.08zm-1.04-.36l.95.1.12-.32a12.63 12.63 0 0 0-1.47-.18z"/><path d="M27.18 11.95l-.47-.05-.68-.66c.3 0 .6.03.87.06a1.23 1.23 0 0 0 .06.33 1.55 1.55 0 0 0 .22.32zm-6.96 1.87H10a.13.13 0 0 1 0-.25h10.16l1.18-2-.27-.34a.13.13 0 0 1 .03-.17.12.12 0 0 1 .17.02l.3.4a.13.13 0 0 1 .01.15l-1.25 2.12a.13.13 0 0 1-.11.06zm-10.8-3.77H8.06a.25.25 0 0 1 0-.5h1.36a.25.25 0 1 1 0 .5zm19.24 3.65h-1.23a.13.13 0 0 1 0-.26h1.23a.13.13 0 0 1 0 .25z"/></g></svg>