<svg xmlns="http://www.w3.org/2000/svg" viewBox="0 0 31 17"><style><![CDATA[.D{fill:#053361}.E{fill:#dedfe0}]]></style><path d="M5.27 13.75s-1.8-.27-2-1.08a1 1 0 0 1 .3-.87V9.16l1.3-2.3a.52.52 0 0 1-.31-.45c0-.32.62-.3.9-.32a1197.3 1197.3 0 0 1 10.42-.26c.68 0 2.6.3 5.2 2.57l5.16 1.16s2.26 1.6.88 4.18H25" fill="#fff"/><path d="M5.27 14c-.2 0-2-.33-2.2-1.28a1.22 1.22 0 0 1 .3-1V9.16a.27.27 0 0 1 0-.12c0-.06.76-1.42 1.18-2.1a.72.72 0 0 1-.22-.52c0-.5.65-.54 1-.56h.12c.32 0 9.78-.26 10.44-.26s2.52.2 5.32 2.6c.56.1 4.36.9 5.13 1.15a2.49 2.49 0 0 1 1.43 1.42 3.62 3.62 0 0 1-.41 3.12.26.26 0 0 1-.22.13H25a.25.25 0 1 1 0-.5h2a3.17 3.17 0 0 0 .32-2.57 1.94 1.94 0 0 0-1.13-1.12c-.78-.26-5.1-1.15-5.13-1.16a.17.17 0 0 1-.12-.05c-2.7-2.33-4.54-2.5-5-2.5-.65 0-10.08.24-10.4.26h-.18a1.45 1.45 0 0 0-.54.09.3.3 0 0 0 .18.19.25.25 0 0 1 .14.16.26.26 0 0 1 0 .21c-.36.5-1.14 1.9-1.3 2.2v2.58a.23.23 0 0 1-.08.18.81.81 0 0 0-.23.63c.1.47 1.14.8 1.77.9a.25.25 0 0 1 0 .5z" class="D"/><ellipse cx="15.13" cy="16.19" rx="10.79" ry=".57" class="E"/><path d="M4.52 10.33a6 6 0 0 1 1-.3l-.3-.4h-.8zm22.16.85c-.32-.06-1.8-.57-1.8-.84s.26-.3.5-.3h.3z" class="D"/><circle cx="7.47" cy="13.75" r="2.19" class="E"/><path d="M7.47 16.2a2.44 2.44 0 1 1 2.44-2.44 2.45 2.45 0 0 1-2.44 2.44zm0-4.38a1.94 1.94 0 1 0 1.94 1.94 1.94 1.94 0 0 0-1.94-1.94z" class="D"/><g fill="#fff"><circle cx="7.47" cy="13.75" r="1.25"/><path d="M6.3 14.24a1.34 1.34 0 0 1-.1-.49A1.26 1.26 0 1 1 7.47 15a1.23 1.23 0 0 1-.78-.27"/></g><path d="M7.47 15.13a1.38 1.38 0 0 1-.86-.3.12.12 0 1 1 .17-.18 1.13 1.13 0 1 0-.42-.88 1.12 1.12 0 0 0 .09.44.14.14 0 0 1-.07.16.11.11 0 0 1-.16-.07 1.17 1.17 0 0 1-.11-.53 1.38 1.38 0 1 1 1.38 1.38z" class="D"/><circle cx="22.79" cy="13.75" r="2.19" class="E"/><path d="M22.8 16.2a2.44 2.44 0 1 1 2.45-2.44 2.44 2.44 0 0 1-2.45 2.44zm0-4.38a1.94 1.94 0 1 0 1.95 1.94 1.94 1.94 0 0 0-1.95-1.94z" class="D"/><circle cx="22.79" cy="13.75" r="1.25" fill="#fff"/><path d="M20.6 14h-9.8a.25.25 0 0 1 0-.5h9.8a.25.25 0 0 1 0 .5zm-17-3.08a.11.11 0 0 1-.1-.06.12.12 0 0 1 0-.17A5.73 5.73 0 0 1 5.34 10l-.13-.2H3.6a.12.12 0 0 1-.12-.13.12.12 0 0 1 .12-.17h1.67a.16.16 0 0 1 .11.05l.28.4a.13.13 0 0 1 0 .12.14.14 0 0 1-.09.08 5.54 5.54 0 0 0-1.91.74zm23.68.42a3 3 0 0 1-.62 0s-1.92-.5-1.92-1c0-.2.1-.42.63-.42H27a.12.12 0 0 1 .12.12.12.12 0 0 1-.12.13h-1.63c-.38 0-.38.12-.38.17a5.08 5.08 0 0 0 1.71.72 5.41 5.41 0 0 0 1 0c.06 0 .13.05.13.12a.12.12 0 0 1-.12.13zm-14.53-1.6h-1a.12.12 0 0 1-.12-.13.12.12 0 0 1 .12-.12h1a.12.12 0 0 1 .12.12.12.12 0 0 1-.12.13zm3.25 0h-1a.12.12 0 0 1-.12-.13.12.12 0 0 1 .12-.12h1a.13.13 0 0 1 .13.12.13.13 0 0 1-.13.13zM20 13H9.48a.12.12 0 0 1-.12-.13.12.12 0 0 1 .12-.12h10.36A2.36 2.36 0 0 1 21 11.11a.12.12 0 0 1 .17 0 .14.14 0 0 1-.05.18 2.11 2.11 0 0 0-1 1.57.12.12 0 0 1-.12.14zM5.45 13a2.34 2.34 0 0 1-1.94-1.16.13.13 0 0 1 .06-.17.13.13 0 0 1 .16.07 2.2 2.2 0 0 0 1.76 1 .12.12 0 0 1 .1.14.13.13 0 0 1-.14.12zm14.3-4.37l.6.45m0 .25a.23.23 0 0 1-.15-.05l-.6-.45a.25.25 0 1 1 .3-.4l.6.45a.25.25 0 0 1 .05.35.23.23 0 0 1-.2.1z" class="D"/><path d="M24.05 13.75a1.26 1.26 0 1 1-1.26-1.25 1.22 1.22 0 0 1 .51.1" fill="#fff"/><path d="M22.8 15.13a1.38 1.38 0 0 1 0-2.76 1.31 1.31 0 0 1 .56.12.13.13 0 0 1 .07.16.14.14 0 0 1-.17.07 1 1 0 0 0-.46-.1 1.13 1.13 0 1 0 1.13 1.13.13.13 0 0 1 .13-.13.13.13 0 0 1 .12.13 1.38 1.38 0 0 1-1.38 1.38z" class="D"/><path d="M23.84 13.06a1.08 1.08 0 0 1 .12.24" fill="#fff"/><path d="M24 13.43a.12.12 0 0 1-.11-.08 1 1 0 0 0-.12-.23.12.12 0 0 1 .21-.13 1.15 1.15 0 0 1 .14.27.12.12 0 0 1-.07.16z" class="D"/><g class="E"><path d="M4 8.72h11.87a6.89 6.89 0 0 0-4-1.81H5.08"/><path d="M3.9 8.63h15.86a6.85 6.85 0 0 0-3.95-1.81L7 6.85"/></g><g class="D"><path d="M19.75 8.88H3.9a.25.25 0 0 1 0-.5H19a5.85 5.85 0 0 0-3.2-1.31L7 7.1a.25.25 0 0 1-.25-.24A.26.26 0 0 1 7 6.6h8.83c.42 0 1.94.14 4.1 1.86a.27.27 0 0 1 .08.28.26.26 0 0 1-.27.14zM4.9 7.12a.25.25 0 0 1 0-.5h1a.25.25 0 0 1 .25.25.24.24 0 0 1-.24.25h-1z"/><path d="M8.1 8.75A.13.13 0 0 1 8 8.6L8.36 7a.14.14 0 0 1 .16-.1.14.14 0 0 1 .09.1l-.38 1.66a.14.14 0 0 1-.13.09zm5.96 3.75a.12.12 0 0 1-.12-.12 45.7 45.7 0 0 0-.83-6.46.12.12 0 0 1 .1-.14.11.11 0 0 1 .14.09 45.82 45.82 0 0 1 .84 6.51.12.12 0 0 1-.13.12zm3.83-3.58h.74a.29.29 0 1 0 0-.58h-.74z"/><path d="M18.63 9.17h-.74a.25.25 0 0 1-.25-.25v-.58a.25.25 0 0 1 .25-.25h.74a.54.54 0 0 1 0 1.08zm-.5-.5h.5V8.6h-.5z"/></g></svg>