<svg xmlns="http://www.w3.org/2000/svg" viewBox="0 0 31 17"><defs><style>.a{fill:#fff}.b{fill:#053361}.c{fill:#dedfe0}</style></defs><path class="a" d="M5.183 14.051l-2.389-.461-.476-.676v-1.045l.661-.614a3.916 3.916 0 0 1-.241-1.7c.077-.216.646-.538.646-.538l1.108-1.7-.338-.676a47.846 47.846 0 0 1 6.729-.4c4.194 0 5.9.415 6.222.553s3.518 2.2 3.733 2.35a4.545 4.545 0 0 0 1.613.415c.6.046 4.678.346 5.246 1.053a9.22 9.22 0 0 1 .845 1.213s.277 1.6-.507 2.228a7.386 7.386 0 0 1-2.368.5"/><path class="b" d="M25.668 14.8a.25.25 0 0 1-.013-.5 7.3 7.3 0 0 0 2.249-.466c.5-.44.463-1.5.4-1.928a9.66 9.66 0 0 0-.8-1.141c-.238-.294-1.683-.7-5.031-.957a4.776 4.776 0 0 1-1.78-.464c-.261-.186-3.4-2.2-3.686-2.323-.346-.149-2.123-.534-6.124-.534a51.784 51.784 0 0 0-6.348.351l.181.363a.249.249 0 0 1-.014.249l-1.109 1.7a.233.233 0 0 1-.085.08 1.934 1.934 0 0 0-.536.409 3.547 3.547 0 0 0 .244 1.532.25.25 0 0 1-.066.266l-.581.54v.857l.373.528 2.29.442a.249.249 0 0 1 .2.293.242.242 0 0 1-.293.2l-2.388-.461a.251.251 0 0 1-.157-.1l-.476-.676a.249.249 0 0 1-.046-.144v-1.047a.251.251 0 0 1 .08-.183l.543-.505a3.523 3.523 0 0 1-.191-1.7c.092-.26.491-.522.707-.65L4.2 7.3l-.27-.55a.25.25 0 0 1 .185-.359 48.516 48.516 0 0 1 6.767-.4c3.94 0 5.858.375 6.322.574.354.152 3.6 2.248 3.779 2.377a4.494 4.494 0 0 0 1.487.368q4.8.369 5.421 1.146a9.365 9.365 0 0 1 .87 1.25.261.261 0 0 1 .027.077c.012.071.293 1.751-.6 2.466a.284.284 0 0 1-.056.033 7.557 7.557 0 0 1-2.455.522z"/><ellipse class="c" cx="15.5" cy="16.196" rx="11.348" ry=".574"/><circle class="c" cx="7.376" cy="13.757" r="2.193"/><path class="b" d="M7.376 16.2a2.443 2.443 0 1 1 2.443-2.442A2.446 2.446 0 0 1 7.376 16.2zm0-4.385a1.943 1.943 0 1 0 1.943 1.943 1.944 1.944 0 0 0-1.943-1.943z"/><circle class="c" cx="23.624" cy="13.757" r="2.193"/><path class="b" d="M23.624 16.2a2.443 2.443 0 1 1 2.443-2.442 2.446 2.446 0 0 1-2.443 2.442zm0-4.385a1.943 1.943 0 1 0 1.943 1.943 1.944 1.944 0 0 0-1.943-1.943z"/><circle class="a" cx="23.624" cy="13.757" r="1.252"/><path class="a" d="M22.371 13.759a1.253 1.253 0 1 1 .767 1.152 1.243 1.243 0 0 1-.613-.553"/><path class="b" d="M23.624 15.135a1.375 1.375 0 0 1-1.208-.717.124.124 0 1 1 .218-.119 1.137 1.137 0 0 0 .553.5 1.127 1.127 0 1 0-.6-1.477 1.1 1.1 0 0 0-.088.438.126.126 0 0 1-.124.126.125.125 0 0 1-.125-.125 1.377 1.377 0 1 1 1.9 1.274 1.388 1.388 0 0 1-.526.1z"/><circle class="a" cx="7.376" cy="13.757" r="1.252"/><path class="b" d="M6.125 13.612a.133.133 0 0 1-.028 0A.125.125 0 0 1 6 13.46a1.361 1.361 0 0 1 .431-.729.127.127 0 0 1 .177.011.125.125 0 0 1-.011.177 1.1 1.1 0 0 0-.353.595.125.125 0 0 1-.119.098zM7.362 15.134A1.394 1.394 0 0 1 6 14.048a.125.125 0 0 1 .1-.149.127.127 0 0 1 .149.1 1.14 1.14 0 1 0 1.113-1.369 1.166 1.166 0 0 0-.34.05.125.125 0 1 1-.074-.238 1.371 1.371 0 0 1 .414-.062 1.377 1.377 0 1 1 0 2.754zM21.544 14.7H10.757a.25.25 0 0 1 0-.5h10.787a.25.25 0 0 1 0 .5z"/><path class="c" d="M7.307 8.95c-.435-.05-2.531-.414-2.407-.632a13.339 13.339 0 0 1 .85-1.041c1.158-.1 2.841-.2 4.938-.2 4.194 0 5.9.414 6.221.553.261.111 2.391 1.472 3.317 2.075z"/><path class="b" d="M20.226 9.956h-.015L7.293 9.2h-.014c-.024 0-2.387-.307-2.6-.727a.338.338 0 0 1 0-.275 12.143 12.143 0 0 1 .886-1.085.25.25 0 0 1 .165-.082 58.21 58.21 0 0 1 4.959-.2c3.94 0 5.856.374 6.32.573.318.136 2.766 1.713 3.355 2.1a.25.25 0 0 1-.137.459zM7.329 8.7l11.964.7c-1.093-.7-2.314-1.467-2.482-1.54-.346-.148-2.122-.532-6.123-.532-2.1 0-3.761.1-4.816.19-.2.23-.474.545-.633.749a14.273 14.273 0 0 0 2.09.433z"/><path class="b" d="M14.085 12.974a.124.124 0 0 1-.125-.125 48.866 48.866 0 0 0-.806-6.536.125.125 0 0 1 .1-.146.127.127 0 0 1 .147.1 49.154 49.154 0 0 1 .81 6.583.124.124 0 0 1-.126.124zM9.9 10.106H8.88a.125.125 0 0 1 0-.25H9.9a.125.125 0 0 1 0 .25zM15.727 10.4h-1.016a.125.125 0 0 1 0-.25h1.016a.125.125 0 0 1 0 .25zM18.029 9.833h.738a.291.291 0 0 0 .291-.291.291.291 0 0 0-.291-.291h-.738z"/><path class="b" d="M18.767 10.083h-.738a.25.25 0 0 1-.25-.25v-.582a.25.25 0 0 1 .25-.25h.738a.541.541 0 1 1 0 1.082zm-.488-.5h.488V9.5h-.488zM2.859 10.754a.125.125 0 0 1 0-.25l.62-.024.185-.571a.132.132 0 0 1 .049-.065l.961-.65a.42.42 0 0 0-.158-.066H3.439a.125.125 0 0 1 0-.25h1.072a.97.97 0 0 1 .457.216.122.122 0 0 1 .049.1.124.124 0 0 1-.055.1l-1.079.73-.2.613a.124.124 0 0 1-.114.087l-.707.027z"/><path class="b" d="M3.439 9h1.072a.976.976 0 0 1 .381.191l-1.114.755H2.754S2.586 9.41 3.439 9zM15.909 6.651a.121.121 0 0 1-.058-.014 7.841 7.841 0 0 0-2.5-.831h-.345c-3.477-.034-5.4-.035-5.719 0a3.8 3.8 0 0 0-1.354.738.125.125 0 1 1-.158-.193 3.945 3.945 0 0 1 1.484-.793c.495-.056 4.451-.017 5.749 0h.343a7.9 7.9 0 0 1 2.615.859.125.125 0 0 1 .054.168.123.123 0 0 1-.111.066z"/><path class="b" d="M9.516 6.378a.112.112 0 0 1-.036 0 .126.126 0 0 1-.08-.161l.181-.6a.125.125 0 0 1 .156-.084.126.126 0 0 1 .084.156l-.181.6a.125.125 0 0 1-.124.089zM28.363 11.653a5.072 5.072 0 0 1-1.267-.18 17.478 17.478 0 0 1-1.9-1.39.125.125 0 0 1 .158-.2 17.249 17.249 0 0 0 1.839 1.353 4.912 4.912 0 0 0 1.179.162.125.125 0 0 1 0 .25z"/><path class="b" d="M25.269 9.985s1.027.833 1.59 1.208l-.371-1.045zM21.451 13.612H9.569a.125.125 0 0 1 0-.25h11.882a.125.125 0 0 1 0 .25zM8.209 9.128a.117.117 0 0 1-.045-.009.125.125 0 0 1-.073-.161l.728-1.9a.125.125 0 0 1 .234.089l-.727 1.9a.128.128 0 0 1-.117.081zM5.269 13.281h-.024L3.313 12.9a.127.127 0 0 1-.1-.147.124.124 0 0 1 .148-.1l1.932.377a.125.125 0 0 1-.025.248z"/><path class="a" d="M20.226 9.706l.62.409"/><path class="b" d="M20.846 10.365a.244.244 0 0 1-.137-.041l-.621-.409a.25.25 0 1 1 .276-.417l.62.409a.25.25 0 0 1-.138.458z"/></svg>